<?xml version="1.0" standalone="no"?>
<!DOCTYPE svg PUBLIC "-//W3C//DTD SVG 1.1//EN" "http://www.w3.org/Graphics/SVG/1.1/DTD/svg11.dtd" >
<svg xmlns="http://www.w3.org/2000/svg">
<metadata></metadata>
<defs>
<font id="universbold" horiz-adv-x="1284" >
<font-face units-per-em="2048" ascent="1638" descent="-410" />
<missing-glyph horiz-adv-x="680" />
<glyph horiz-adv-x="0" />
<glyph horiz-adv-x="682" />
<glyph unicode=" "  horiz-adv-x="680" />
<glyph unicode="&#x09;" horiz-adv-x="680" />
<glyph unicode="&#xa0;" horiz-adv-x="680" />
<glyph unicode="!" horiz-adv-x="680" d="M215 1409h255l-36 -1021h-183zM224 0v237h236v-237h-236z" />
<glyph unicode="&#x22;" horiz-adv-x="1057" d="M204 1409h263l-55 -449h-144zM578 1409h263l-55 -449h-144z" />
<glyph unicode="#" d="M44 391l48 166h1000l-48 -166h-1000zM128 0l410 1409h196l-410 -1409h-196zM188 889l48 166h1000l-48 -166h-1000zM546 0l410 1409h196l-410 -1409h-196z" />
<glyph unicode="$" d="M203 501v8h260q10 -92 51.5 -131t130.5 -39q93 0 141 38.5t48 112.5q0 54 -42 78q-41 23 -202 59l-30 6q-178 40 -255 107q-76 67 -76 184q0 128 115 209t296 81q213 0 307.5 -68t104.5 -228h-250q-11 78 -48 111t-114 33q-75 0 -114 -32.5t-39 -95.5q0 -45 35 -71 q35 -25 124 -45l180 -40q140 -31 201 -95q60 -63 60 -180q0 -149 -117 -232.5t-325 -83.5q-224 0 -333 79.5t-109 234.5zM552 -53v392h186v-392h-186zM552 1062v392h186v-392h-186z" />
<glyph unicode="%" horiz-adv-x="2039" d="M178 1042q0 179 99 287t264 108t264.5 -108t99.5 -287t-99.5 -286.5t-264.5 -107.5t-264 107.5t-99 286.5zM363 1042q0 -130 44 -194.5t134 -64.5t134.5 64.5t44.5 194.5q0 131 -44.5 195.5t-134.5 64.5t-134 -64.5t-44 -195.5zM504 -70l833 1521h199l-833 -1521h-199z M1133 366q0 179 99 287t264 108t264.5 -108t99.5 -287t-99.5 -286.5t-264.5 -107.5t-264 107.5t-99 286.5zM1318 366q0 -130 44 -194.5t134 -64.5t134.5 64.5t44.5 194.5q0 131 -44.5 195.5t-134.5 64.5t-134 -64.5t-44 -195.5z" />
<glyph unicode="&#x26;" horiz-adv-x="1548" d="M132 416q0 125 100 242q72 84 187 152q-52 61 -89 120q-73 117 -73 195q0 138 109 225t282 87q185 0 288 -74.5t103 -208.5q0 -120 -102 -231q-71 -78 -185 -141l349 -353q12 36 19 77q19 109 14 277h119h120q6 -202 -33 -339q-27 -95 -82 -173l268 -271h-161h-161 l-112 114q-54 -33 -121 -59q-144 -55 -310 -55q-235 0 -382 115.5t-147 300.5zM404 446q0 -125 79 -195q79 -69 222 -69q92 0 185 44q31 15 60 34l-402 409q-44 -32 -78 -69q-66 -74 -66 -154zM500 1126q0 -43 50 -117q31 -46 79 -100q57 37 99 76q75 74 75 150 q0 58 -39.5 90t-111.5 32t-112 -35q-40 -34 -40 -96z" />
<glyph unicode="'" horiz-adv-x="680" d="M204 1409h263l-55 -449h-144z" />
<glyph unicode="(" horiz-adv-x="680" d="M152 613q0 161 66.5 419.5t138.5 375.5h196q-53 -86 -101.5 -344.5t-48.5 -450.5q0 -193 49 -452t101 -344h-196q-72 117 -139 376q-66 259 -66 420z" />
<glyph unicode=")" horiz-adv-x="680" d="M152 -183q53 86 101.5 344.5t48.5 450.5q0 193 -49 452t-101 344h196q72 -117 139 -376q66 -259 66 -420t-66.5 -419.5t-138.5 -375.5h-196z" />
<glyph unicode="*" d="M243 942v191l312 -45l-198 245l166 98l119 -293l116 295l167 -95l-195 -250l313 46v-191l-312 45l198 -245l-166 -98l-119 293l-116 -295l-167 95l195 250z" />
<glyph unicode="+" horiz-adv-x="2039" d="M445 506v144h503v503h144v-503h503v-144h-503v-503h-144v503h-503z" />
<glyph unicode="," horiz-adv-x="680" d="M161 -185l129 448h273l-206 -448h-196z" />
<glyph unicode="-" horiz-adv-x="680" d="M127 427v186h486v-186h-486z" />
<glyph unicode="." horiz-adv-x="680" d="M239 0v264h264v-264h-264z" />
<glyph unicode="/" horiz-adv-x="680" d="M97 -70l398 1507h155l-398 -1507h-155z" />
<glyph unicode="0" d="M97 704q0 331 149.5 530.5t397.5 199.5q275 0 411.5 -181.5t136.5 -543.5v-5q0 -331 -149.5 -530t-398.5 -199q-273 0 -409.5 182t-137.5 547zM379 704q1 -263 66.5 -392.5t198.5 -129.5q134 0 200.5 129.5t65.5 392.5q1 263 -65.5 393t-200.5 130q-133 0 -198.5 -130 t-66.5 -393z" />
<glyph unicode="1" d="M280 944v250q118 42 195 87q78 44 174 124h255v-1405h-133h-133v1139q-89 -64 -166 -111q-75 -45 -192 -84z" />
<glyph unicode="2" d="M155 0v125v125q382 287 559 474q176 187 176 306q0 95 -53 146t-151 51q-88 0 -141.5 -52t-62.5 -146h-296q-9 184 126 294.5t367 110.5q237 0 365 -102q128 -101 128 -289q0 -203 -194 -407q-158 -166 -531 -424h761v-212h-1053z" />
<glyph unicode="3" d="M113 384h282q5 -98 71 -152t181 -54q124 0 193 58t69 163q0 112 -79.5 167.5t-240.5 55.5h-67v208h3q160 0 256 54t96 144q0 92 -59 145.5t-161 53.5q-96 0 -153.5 -47.5t-65.5 -132.5h-282q-8 164 136.5 275.5t364.5 111.5q216 0 359 -109t143 -273q0 -147 -88 -236 q-65 -66 -162 -83q92 -24 153 -65q129 -89 129 -286q0 -185 -148.5 -296t-395.5 -111q-261 0 -389 98t-145 311z" />
<glyph unicode="4" d="M64 324v123v124l590 838h169h170v-873h247v-212h-247v-324h-261v324h-668zM292 536h440v641l-415 -606z" />
<glyph unicode="5" d="M160 369h282q7 -90 63 -140.5t150 -50.5q116 0 183.5 73t67.5 200q0 138 -57.5 206t-174.5 68q-81 0 -140.5 -46t-77.5 -123h-266l13 853h893v-212h-653l-9 -392q29 26 58 45q117 78 284 78q187 0 300 -123q112 -122 112 -325q0 -229 -140.5 -367t-373.5 -138 q-242 0 -370 98.5t-144 295.5z" />
<glyph unicode="6" d="M126 634q0 384 153 592t434 208q212 0 331.5 -99.5t128.5 -283.5h-282q-14 88 -58.5 132t-119.5 44q-159 0 -233 -159q-54 -115 -65 -331q19 28 43 53q126 133 308 133q201 0 314.5 -126t113.5 -349q0 -200 -154 -336.5t-380 -136.5q-257 0 -395.5 171.5t-138.5 487.5z M450 448q0 -123 62 -194.5t169 -71.5t169 71.5t62 194.5q0 127 -61 197.5t-170 70.5q-102 0 -167 -75q-64 -74 -64 -193z" />
<glyph unicode="7" d="M153 1197v212h997v-91v-91l-482 -1227h-326l538 1197h-727z" />
<glyph unicode="8" d="M102 389q0 174 149 279q63 46 145 70q-71 27 -128 63q-144 96 -144 253q0 172 143 276t380 104q241 0 382 -100.5t141 -271.5q0 -162 -143 -260q-56 -38 -127 -61q82 -29 145 -72q147 -103 147 -280q0 -188 -149 -301t-396 -113q-245 0 -395 114t-150 300zM384 400 q0 -102 72 -163.5t191 -61.5t191 61.5t72 163.5q0 103 -72 165t-191 62t-191 -62t-72 -165zM406 1032q0 -88 66 -141q66 -52 175 -52t175 52.5t66 140.5t-66 141.5t-175 53.5t-175 -53.5t-66 -141.5z" />
<glyph unicode="9" d="M118 979q0 192 154.5 323t381.5 131q274 0 405.5 -171.5t130.5 -529.5q-1 -387 -146 -573q-144 -185 -444 -185q-218 0 -341 97t-131 276h282q14 -88 58.5 -127t131.5 -39q176 0 246 146q55 116 65 374q-18 -25 -41 -49q-123 -128 -301 -128q-207 0 -329 123t-122 332z M400 979q0 -113 65 -180.5t173 -67.5q96 0 167 74q70 74 70 174q0 112 -64.5 179.5t-172.5 67.5t-173 -67.5t-65 -179.5z" />
<glyph unicode=":" horiz-adv-x="680" d="M239 0v264h264v-264h-264zM239 718v264h264v-264h-264z" />
<glyph unicode=";" horiz-adv-x="680" d="M161 -185l129 449h273l-206 -449h-196zM246 718v264h264v-264h-264z" />
<glyph unicode="&#x3c;" horiz-adv-x="2039" d="M410 553v75v75l1225 546v-192l-966 -429l966 -436v-192z" />
<glyph unicode="=" horiz-adv-x="2039" d="M449 310v145h1144v-145h-1144zM449 677v145h1144v-145h-1144z" />
<glyph unicode="&#x3e;" horiz-adv-x="2039" d="M410 0v192l966 436l-966 429v192l1225 -546v-75v-75z" />
<glyph unicode="?" horiz-adv-x="1057" d="M156 1206v182q51 15 128.5 25t139.5 10q254 0 376 -87.5t122 -269.5q0 -110 -50 -185t-236 -245q-77 -70 -90 -101.5t-13 -144.5h-204v21q0 142 19 181t156 180q66 68 106 137.5t40 115.5q0 102 -70 159q-69 56 -194 56q-77 0 -137.5 -9t-92.5 -25zM313 0v237h236v-237 h-236z" />
<glyph unicode="@" horiz-adv-x="2039" d="M89 712q0 388 280.5 656t685.5 268q410 0 650.5 -224.5t240.5 -607.5q0 -267 -120 -424t-324 -157q-139 0 -221 68q-34 28 -53 64q-105 -132 -290 -132q-167 0 -282.5 141t-115.5 346t113.5 346t278.5 141q162 1 260 -92v64h273v-568q0 -80 18.5 -127t50.5 -47 q66 0 104.5 102t38.5 275q0 280 -170.5 444t-462.5 164q-288 0 -487 -203t-199 -497q0 -322 197 -511.5t534 -189.5q97 0 211 20.5t182 49.5v-257q-36 -16 -137 -26.5t-211 -10.5q-481 0 -763 249.5t-282 675.5zM813 710q0 -119 57 -201t139 -82q93 0 145 82t52 229 q0 121 -52 188t-145 67q-82 0 -139 -82t-57 -201z" />
<glyph unicode="A" horiz-adv-x="1511" d="M42 0l524 1409h185h186l523 -1409h-156h-156l-101 300h-596l-100 -300h-154h-155zM524 518h450l-226 667z" />
<glyph unicode="B" d="M152 0v1409h145h391q235 0 356 -88t121 -260q0 -171 -139 -259q-61 -38 -146 -59q112 -25 187 -70q157 -95 157 -289q0 -190 -138.5 -287t-408.5 -97h-380h-145zM442 218h173q159 0 240.5 52.5t81.5 155.5q0 89 -70.5 143t-187.5 54h-237v-405zM442 841h104 q171 0 251.5 41t80.5 128q0 89 -68.5 135t-202.5 46h-165v-350z" />
<glyph unicode="C" horiz-adv-x="1435" d="M121 704q0 359 166.5 546t485.5 187q247 0 408 -138q154 -131 153 -320v-21h-287q-11 124 -88.5 192.5t-204.5 68.5q-169 0 -257.5 -131.5t-88.5 -383.5t90.5 -383t262.5 -131q132 0 209 72.5t83 202.5h287q1 -12 1 -23q0 -194 -160 -328q-169 -142 -427 -142 q-310 0 -471.5 186.5t-161.5 545.5z" />
<glyph unicode="D" horiz-adv-x="1473" d="M150 0v1409h145h414q314 0 490.5 -187t176.5 -518q0 -345 -199.5 -524.5t-584.5 -179.5h-297h-145zM440 218h201q220 0 334 124t114 362q0 234 -118.5 360.5t-336.5 126.5h-194v-973z" />
<glyph unicode="E" horiz-adv-x="1171" d="M142 0v1409h928v-109v-109h-638v-350h600v-109v-109h-600v-405h657v-109v-109h-947z" />
<glyph unicode="F" horiz-adv-x="1133" d="M146 0v1409h907v-109v-109h-617v-364h580v-109v-109h-580v-609h-145h-145z" />
<glyph unicode="G" horiz-adv-x="1511" d="M115 704q0 337 189 535t510 198q277 0 419.5 -121.5t142.5 -357.5h-287q-2 137 -68.5 199t-209.5 62q-196 0 -302.5 -134t-106.5 -381q0 -252 110 -383t321 -131q110 0 241 33v313h-272v218h562v-704q-250 -78 -506 -78q-364 0 -553.5 186.5t-189.5 545.5z" />
<glyph unicode="H" horiz-adv-x="1473" d="M154 0v1409h145h145v-568h584v568h145h145v-1409h-145h-145v623h-584v-623h-145h-145z" />
<glyph unicode="I" horiz-adv-x="566" d="M141 0v1409h145h145v-1409h-145h-145z" />
<glyph unicode="J" horiz-adv-x="1133" d="M32 437h290q6 -128 48.5 -186.5t131.5 -58.5q109 0 155.5 57.5t46.5 193.5v966h145h145v-956v-23q0 -214 -124 -333q-131 -125 -381 -125q-236 0 -352 118q-106 107 -106 308q0 19 1 39z" />
<glyph unicode="K" horiz-adv-x="1360" d="M176 0v1409h145h145v-626l425 626h158h159l-448 -642l514 -767h-170h-171l-467 721v-721h-145h-145z" />
<glyph unicode="L" horiz-adv-x="1095" d="M151 0v1409h145h145v-1191h588v-109v-109h-878z" />
<glyph unicode="M" horiz-adv-x="1850" d="M145 0v1409h241h242l294 -1119l290 1119h241h242v-1409h-133h-133v1303l-355 -1303h-154h-154l-355 1294v-1294h-133h-133z" />
<glyph unicode="N" horiz-adv-x="1473" d="M137 0v1409h203h203l509 -1063v1063h133h133v-1409h-200h-200l-515 1076v-1076h-133h-133z" />
<glyph unicode="O" horiz-adv-x="1548" d="M120 704q0 359 166.5 546t485.5 187q320 0 486 -187t166 -546t-166 -545.5t-486 -186.5q-319 0 -485.5 186.5t-166.5 545.5zM407 704q0 -252 93.5 -383t271.5 -131q179 0 272 131t93 383t-93 383.5t-272 131.5q-178 0 -271.5 -131.5t-93.5 -383.5z" />
<glyph unicode="P" horiz-adv-x="1208" d="M149 0v1409h145h395q233 0 357 -112.5t124 -323.5q0 -214 -133 -324t-392 -110h-206v-539h-145h-145zM439 757h159q138 0 211.5 56t73.5 160q0 105 -64.5 161.5t-184.5 56.5h-195v-434z" />
<glyph unicode="Q" horiz-adv-x="1586" d="M125 704q0 359 167.5 546t487.5 187q321 0 488 -187t167 -546q1 -289 -196 -486h316v-218h-411l-364 -28q-320 0 -487.5 186.5t-167.5 545.5zM412 704q0 -252 94 -383t274 -131q181 0 274.5 131t93.5 383t-93.5 383.5t-274.5 131.5q-180 0 -274 -131.5t-94 -383.5z" />
<glyph unicode="R" horiz-adv-x="1322" d="M149 0v1409h145h421q248 0 380.5 -94t132.5 -271q0 -179 -142 -271q-69 -45 -169 -67q84 -13 133 -37q103 -51 118 -187q15 -137 33 -241l4 -21q15 -78 28 -127.5t31 -91.5h-154h-154q-10 28 -18.5 77t-20.5 142l-15 126q-16 141 -56.5 184.5t-158.5 43.5h-248v-574h-145 h-145zM439 792h180q156 0 239 51.5t83 147.5q0 97 -73 148.5t-209 51.5h-220v-399z" />
<glyph unicode="S" horiz-adv-x="1322" d="M98 438v13h286v-19q0 -112 66 -174q72 -68 208 -68q118 0 196 56t78 141q0 56 -48 92t-175 75l-181 55q-212 65 -299 150t-87 227q0 198 144.5 324.5t371.5 126.5q255 0 391 -112q126 -103 126 -280l-1 -31h-286q-3 97 -63.5 151t-166.5 54q-99 0 -164.5 -51.5 t-65.5 -128.5q0 -65 60 -109q60 -43 218 -91l181 -55q181 -55 256 -139q75 -83 75 -230q0 -195 -157 -319t-403 -124q-284 0 -424 119q-136 116 -136 347z" />
<glyph unicode="T" d="M67 1191v109v109h1150v-109v-109h-430v-1191h-145h-145v1191h-430z" />
<glyph unicode="U" horiz-adv-x="1473" d="M138 559v850h145h145v-922q0 -146 75.5 -221.5t221.5 -75.5t221.5 75.5t75.5 221.5v922h145h145v-850q0 -288 -149.5 -437.5t-437.5 -149.5q-287 0 -437 149.5t-150 437.5z" />
<glyph unicode="V" horiz-adv-x="1473" d="M46 1409h158h158l384 -1093l385 1093h144h144l-533 -1409h-154h-154z" />
<glyph unicode="W" horiz-adv-x="2039" d="M48 1409h145h146l237 -1083l279 1083h167h168l284 -1083l232 1083h145h146l-367 -1409h-157h-157l-294 1068l-288 -1068h-154h-154z" />
<glyph unicode="X" horiz-adv-x="1473" d="M50 0l516 728l-473 681h175h176l315 -480l307 480h161h162l-469 -682l510 -727h-178h-178l-350 526l-348 -526h-163h-163z" />
<glyph unicode="Y" horiz-adv-x="1397" d="M51 1409h175h175l321 -626l314 626h153h153l-500 -865v-544h-145h-145v542z" />
<glyph unicode="Z" horiz-adv-x="1246" d="M98 0v126v126l693 897l34 42h-693v109v109h1005v-130v-130l-693 -897l-27 -34h728v-109v-109h-1047z" />
<glyph unicode="[" horiz-adv-x="680" d="M197 -183v1591h404v-106h-187v-1379h187v-106h-404z" />
<glyph unicode="\" horiz-adv-x="680" d="M65 1437h155l397 -1507h-155z" />
<glyph unicode="]" horiz-adv-x="680" d="M104 -77h187v1379h-187v106h404v-1591h-404v106z" />
<glyph unicode="^" horiz-adv-x="1020" d="M99 993v94q139 102 214 196q76 95 145 253h53h53q69 -158 144 -252q76 -95 216 -197v-94q-232 105 -368 219l-46 41l-44 -40q-136 -114 -367 -220z" />
<glyph unicode="_" horiz-adv-x="1020" d="M0 -407h1020v-105h-1020v105z" />
<glyph unicode="`" d="M307 1406h314l193 -303h-220z" />
<glyph unicode="a" horiz-adv-x="1095" d="M88 275q0 176 125.5 264t376.5 88h126v45q0 85 -41.5 124.5t-130.5 39.5q-78 0 -113.5 -31t-35.5 -99h-267q7 153 109 228.5t301 75.5q222 0 333.5 -93.5t111.5 -280.5v-354q0 -111 6.5 -185t17.5 -97h-251l-22 117l-29 -35q-103 -110 -274 -110q-162 0 -252.5 79.5 t-90.5 223.5zM351 288q0 -67 43 -104t120 -37q95 0 144.5 61t57.5 188v79h-73q-138 0 -215 -49t-77 -138z" />
<glyph unicode="b" horiz-adv-x="1171" d="M130 0v1409h133h134v-522q108 123 288 123q193 0 299.5 -137t106.5 -383q0 -245 -107 -381.5t-300 -136.5q-184 0 -278 138l-9 13v-123h-267zM397 491q-1 -24 -1 -47q0 -130 48 -207q56 -90 167 -90q103 0 160 90.5t57 252.5q0 163 -57 254t-159 91t-158.5 -90.5 t-56.5 -253.5z" />
<glyph unicode="c" horiz-adv-x="1095" d="M104 490q0 246 130 383t363 137q203 0 307 -91t113 -276h-266q0 91 -45.5 141.5t-127.5 50.5q-102 0 -155 -88t-53 -257q0 -170 52.5 -256.5t155.5 -86.5q90 1 136 55q39 46 38 124q0 14 -1 28h266q0 -181 -115.5 -281.5t-323.5 -100.5q-224 0 -349 136.5t-125 381.5z " />
<glyph unicode="d" horiz-adv-x="1171" d="M90 490q0 246 111.5 383t310.5 137q173 0 272 -118v517h133h134v-1409h-125h-126v141q-8 -17 -20 -32q-100 -137 -280 -137q-194 0 -302 136.5t-108 381.5zM353 490q0 -176 53.5 -259.5t167.5 -83.5q106 0 164.5 90.5t58.5 253.5q0 172 -55.5 258t-166.5 86 q-105 0 -163.5 -91t-58.5 -254z" />
<glyph unicode="e" horiz-adv-x="1095" d="M87 490q0 231 129 375.5t334 144.5q234 0 348.5 -128t114.5 -388v-4l-2 -64h-658q6 -137 48 -204q47 -75 153 -75q81 0 127 41.5t47 115.5h266q-15 -157 -131.5 -244.5t-312.5 -87.5q-219 0 -341 136.5t-122 381.5zM360 603h390q-8 107 -38 157q-43 75 -154 75t-158 -86 q-28 -51 -40 -146z" />
<glyph unicode="f" horiz-adv-x="755" d="M60 808v174h171v114q0 184 76.5 256t270.5 72h20q58 0 110 -5v-173q-32 4 -71 4q-75 0 -107 -35.5t-32 -118.5v-114h197v-174h-197v-808h-133h-134v808h-171z" />
<glyph unicode="g" horiz-adv-x="1171" d="M94 504q0 230 118 368t314 138h3q167 0 260 -123v95h267v-928q0 -248 -113 -358t-368 -110q-207 0 -322.5 85t-115.5 238h267q0 -71 44 -110t123 -39q107 0 162.5 62.5t55.5 182.5v137l-7 -9q-97 -133 -272 -133q-189 0 -302.5 137.5t-113.5 366.5zM357 504 q0 -156 58 -242.5t162 -86.5q106 0 164.5 87t58.5 243t-58.5 243t-163.5 87t-163 -87t-58 -244z" />
<glyph unicode="h" horiz-adv-x="1171" d="M122 0v1409h132h132v-584q19 41 44 72q90 113 272 113q175 0 262 -98.5t87 -295.5v-616h-133h-134v619q0 97 -49 156t-130 59q-101 0 -160 -75.5t-59 -203.5v-555h-132h-132z" />
<glyph unicode="i" horiz-adv-x="491" d="M102 1148v261h290v-261h-290zM114 0v982h133h134v-982h-133h-134z" />
<glyph unicode="j" horiz-adv-x="491" d="M-80 -213h48q70 0 106.5 31t36.5 91v1073h133h134v-1073q0 -157 -74 -226.5t-240 -69.5l-144 3v171zM100 1148v261h290v-261h-290z" />
<glyph unicode="k" horiz-adv-x="1095" d="M143 0v1409h133h134v-823l295 396h149h149l-334 -425l361 -557h-154h-154l-312 506v-506h-133h-134z" />
<glyph unicode="l" horiz-adv-x="491" d="M112 0v1409h133h134v-1409h-133h-134z" />
<glyph unicode="m" horiz-adv-x="1775" d="M127 0v982h133h134v-152q18 38 40 67q86 113 260 113q140 0 237 -77q59 -46 82 -106q17 39 41 70q88 113 265 113q170 0 254.5 -95.5t84.5 -287.5v-627h-133h-134v637q0 89 -45 143t-119 54q-92 0 -146 -75.5t-54 -203.5v-555h-133h-134v636q0 89 -45.5 143.5 t-119.5 54.5q-92 0 -146.5 -75.5t-54.5 -203.5v-555h-133h-134z" />
<glyph unicode="n" horiz-adv-x="1171" d="M121 0v982h132h132v-156q19 39 44 71q90 113 272 113q175 0 262 -98.5t87 -295.5v-616h-133h-134v619q0 97 -49 156t-130 59q-112 0 -165.5 -68.5t-53.5 -210.5v-555h-132h-132z" />
<glyph unicode="o" horiz-adv-x="1171" d="M91 490q0 246 130.5 383t364.5 137q235 0 365 -137t130 -383q0 -245 -130 -381.5t-365 -136.5q-234 0 -364.5 136.5t-130.5 381.5zM357 490q0 -177 55.5 -260t173.5 -83q112 0 170.5 87.5t58.5 255.5q0 171 -58 258t-171 87q-112 0 -170.5 -88t-58.5 -257z" />
<glyph unicode="p" horiz-adv-x="1171" d="M123 -366v1348h129h130v-124l12 15q104 137 293 137t293 -137t104 -383q0 -245 -111.5 -381.5t-312.5 -136.5q-168 1 -270 119v-457h-133h-134zM378 491q-1 -20 -1 -39q0 -128 53 -210q60 -95 168 -95q106 0 164.5 90.5t58.5 252.5q0 163 -58.5 254t-163.5 91t-163 -90.5 t-58 -253.5z" />
<glyph unicode="q" horiz-adv-x="1171" d="M123 490q0 246 109 383t304 137q182 0 283 -137l11 -15v124h254v-1348h-133h-134v455q-100 -116 -273 -117q-199 0 -310 136.5t-111 381.5zM386 490q0 -176 53.5 -259.5t167.5 -83.5q106 0 164.5 90.5t58.5 253.5q0 172 -55.5 258t-166.5 86q-105 0 -163.5 -91 t-58.5 -254z" />
<glyph unicode="r" horiz-adv-x="718" d="M124 0v982h129h130v-163l30 51q92 140 254 140h5v-250h-12q-124 0 -196.5 -70.5t-72.5 -190.5v-499h-133h-134z" />
<glyph unicode="s" horiz-adv-x="1020" d="M87 309v5h254q3 -84 47 -125.5t130 -41.5q77 0 127.5 36t50.5 91q0 41 -31 66q-30 24 -110 46l-130 35q-170 46 -242 113q-71 67 -71 180q0 130 113.5 213t291.5 83q200 0 307 -83q100 -76 100 -208l-1 -22h-252q-2 70 -39.5 104t-114.5 34q-66 0 -109.5 -30t-43.5 -75 q0 -33 41 -58q41 -24 147 -53l130 -35q145 -40 206 -105q60 -65 60 -180q0 -144 -120.5 -235.5t-309.5 -91.5q-205 0 -318 90t-113 247z" />
<glyph unicode="t" horiz-adv-x="755" d="M45 808v174h178v147l267 132v-279h203v-174h-203v-494q0 -94 29 -131t103 -37q34 1 71 13v-169q-85 -18 -194 -18q-146 0 -211 69.5t-65 226.5v540h-178z" />
<glyph unicode="u" horiz-adv-x="1171" d="M118 382v600h132h132v-576q0 -116 49 -187t130 -71q101 0 160 75.5t59 203.5v555h133h134v-982h-124h-124v159q-18 -34 -43 -64q-102 -123 -275 -123q-182 0 -272.5 102.5t-90.5 307.5z" />
<glyph unicode="v" horiz-adv-x="1133" d="M53 982h150h150l228 -744l232 744h136h136l-351 -982h-165h-165z" />
<glyph unicode="w" horiz-adv-x="1775" d="M90 982h132h133l202 -704l185 704h148h149l210 -700l197 700h119h120l-293 -982h-155h-155l-201 660l-185 -660h-153h-153z" />
<glyph unicode="x" horiz-adv-x="1133" d="M55 0l348 527l-308 455h170h171l159 -285l159 285h141h142l-301 -456l341 -526h-162h-163l-208 353l-209 -353h-140h-140z" />
<glyph unicode="y" horiz-adv-x="1133" d="M50 982h149h149l221 -646l240 646h137h138l-540 -1351h-128h-128l161 367z" />
<glyph unicode="z" horiz-adv-x="982" d="M91 0v102v102l475 583l15 18h-476v88v89h759v-97v-98l-460 -583l-22 -27h504v-88v-89h-795z" />
<glyph unicode="{" horiz-adv-x="1020" d="M161 440v210q106 0 170.5 75t64.5 198v266q0 224 108 305t395 72v-196q-146 5 -194.5 -31.5t-48.5 -149.5v-266q0 -207 -131 -324q-35 -31 -76 -54q41 -24 76 -54q131 -117 131 -324v-266q0 -113 48.5 -149.5t194.5 -31.5v-196q-287 -9 -395 72t-108 305v266 q0 123 -64.5 198t-170.5 75z" />
<glyph unicode="|" horiz-adv-x="1020" d="M458 -512v2048h105v-2048h-105z" />
<glyph unicode="}" horiz-adv-x="1020" d="M124 -280q145 -5 193.5 31.5t48.5 149.5v266q0 207 131 324q35 30 76 54q-41 23 -76 54q-131 117 -131 324v266q0 113 -48.5 149.5t-193.5 31.5v196q286 9 394 -72t108 -305v-266q0 -123 64.5 -198t170.5 -75v-210q-106 0 -170.5 -75t-64.5 -198v-266q0 -224 -108 -305 t-394 -72v196z" />
<glyph unicode="~" horiz-adv-x="2039" d="M414 490q54 102 149 172.5t178 70.5q81 0 157.5 -16.5t183.5 -56.5q68 -26 156.5 -44t147.5 -18q76 0 152 36t109 88l37 -56q-35 -108 -130 -182t-197 -74q-48 0 -124.5 16.5t-216.5 57.5q-89 26 -178 43.5t-128 17.5q-71 0 -148 -35t-116 -86z" />
<glyph unicode="&#xa2;" d="M188 697q0 244 128.5 380t359.5 136q210 0 317 -89t116 -270h-255q0 97 -49 151t-138 54q-115 0 -164 -83t-49 -277q0 -178 49 -268.5t145 -90.5q105 0 157 54.5t52 165.5h252q0 -190 -114.5 -283.5t-346.5 -93.5q-217 0 -338.5 135.5t-121.5 378.5zM570 -48v388h182 v-388h-182zM570 1059v393h182v-393h-182z" />
<glyph unicode="&#xa3;" d="M154 676v174h153v235q0 167 110.5 259.5t308.5 92.5t296 -89t90 -263h-253q2 91 -32.5 136t-105.5 45q-72 0 -112.5 -47.5t-40.5 -133.5v-235h257v-174h-257v-486h544v-95v-95h-930v190h125v486h-153z" />
<glyph unicode="&#xa5;" d="M0 1409h174h175l319 -625l315 625h153h153l-499 -864v-101h306v-99h-306v-99h306v-99h-306v-147h-145h-145v147h-306v99h306v99h-306v99h306v99z" />
<glyph unicode="&#xa8;" d="M323 1134v237h244v-237h-244zM727 1134v237h244v-237h-244z" />
<glyph unicode="&#xa9;" horiz-adv-x="1020" d="M70 1051q0 201 138.5 339.5t338.5 138.5q201 0 339.5 -138.5t138.5 -339.5q0 -200 -138.5 -338.5t-339.5 -138.5q-200 0 -338.5 138.5t-138.5 338.5zM135 1051q0 -173 119.5 -292.5t292.5 -119.5t293 119.5t120 292.5t-120 293t-293 120t-292.5 -120t-119.5 -293z M318 1060q0 116 75.5 195.5t184.5 79.5q58 0 114.5 -22t79.5 -54l-58 -62q-19 26 -58.5 44.5t-77.5 18.5q-78 0 -131.5 -58t-53.5 -142t54.5 -141.5t133.5 -57.5q37 0 77 19.5t61 47.5l58 -62q-24 -34 -81 -57t-115 -23q-110 0 -186.5 79.5t-76.5 194.5z" />
<glyph unicode="&#xab;" horiz-adv-x="1133" d="M137 495l183 379h239l-159 -379l159 -379h-239zM605 495l183 379h239l-159 -379l159 -379h-239z" />
<glyph unicode="&#xad;" horiz-adv-x="680" d="M127 427v186h486v-186h-486z" />
<glyph unicode="&#xae;" horiz-adv-x="1020" d="M70 1046q0 201 138.5 339.5t338.5 138.5q201 0 339.5 -138.5t138.5 -339.5q0 -200 -138.5 -338.5t-339.5 -138.5q-200 0 -338.5 138.5t-138.5 338.5zM135 1046q0 -173 119.5 -292.5t292.5 -119.5t293 119.5t120 292.5t-120 293t-293 120t-292.5 -120t-119.5 -293z M380 807v506h187q62 0 104.5 -42.5t42.5 -104.5t-43 -105q-20 -20 -46 -31l89 -223h-91l-84 212h-84v-212h-75zM455 1094h112q30 0 51 21t21 51t-21 51t-51 21h-112v-72v-72z" />
<glyph unicode="&#xb4;" d="M475 1103l199 303h307l-281 -303h-225z" />
<glyph unicode="&#xb8;" d="M437 -401l176 280h219l-120 -280h-275z" />
<glyph unicode="&#xbb;" horiz-adv-x="1133" d="M121 116l159 379l-159 379h239l183 -379l-183 -379h-239zM589 116l159 379l-159 379h239l183 -379l-183 -379h-239z" />
<glyph unicode="&#x2c6;" d="M316 1103l195 303h138h138l195 -303h-189l-144 168l-148 -168h-185z" />
<glyph unicode="&#x2da;" d="M421 1331q0 96 66 162.5t162 66.5t162.5 -66.5t66.5 -162.5t-66.5 -162t-162.5 -66t-162 66t-66 162zM551 1331q0 -41 28.5 -69.5t69.5 -28.5q42 0 70.5 28.5t28.5 69.5q0 42 -28.5 70.5t-70.5 28.5q-41 0 -69.5 -28.5t-28.5 -70.5z" />
<glyph unicode="&#x2dc;" d="M306 1097q12 158 60 222.5t153 64.5q50 0 90.5 -15.5t101.5 -57.5q24 -17 48 -28.5t35 -11.5q37 0 50.5 24.5t12.5 88.5h161q-2 -141 -53 -214t-147 -73q-60 0 -103 15.5t-102 58.5q-23 16 -46.5 27.5t-35.5 11.5q-31 0 -46 -27t-17 -86h-162z" />
<glyph unicode="&#x401;" horiz-adv-x="1171" d="M142 0v1409h928v-109v-109h-638v-350h600v-109v-109h-600v-405h657v-109v-109h-947zM239 1547v242h234v-242h-234zM648 1547v242h234v-242h-234z" />
<glyph unicode="&#x402;" horiz-adv-x="1548" d="M34 1191v109v109h1150v-109v-109h-430v-363l55 14q128 31 250 31q235 0 341 -120t83 -361q-15 -189 -105 -295q-106 -125 -310 -125q-49 0 -79 3.5t-34 10.5v208q2 -4 39 -4q100 0 152 70q43 57 50 156q10 132 -41.5 200.5t-160.5 68.5q-62 0 -139 -18t-101 -39v-628 h-145h-145v1191h-430z" />
<glyph unicode="&#x403;" horiz-adv-x="1148" d="M143 0v1409h958v-109v-109h-668v-1191h-145h-145zM460 1530l199 303h307l-281 -303h-225z" />
<glyph unicode="&#x404;" horiz-adv-x="1435" d="M121 704q0 359 166.5 546t485.5 187q247 0 408 -138q154 -131 153 -320v-21h-287q-11 124 -88.5 192.5t-204.5 68.5q-169 0 -258 -132q-62 -92 -80 -246h458v-218h-463q12 -193 88 -302q90 -131 262 -131q132 0 209 72.5t83 202.5h287q10 -209 -159 -351t-427 -142 q-310 0 -471.5 186.5t-161.5 545.5z" />
<glyph unicode="&#x405;" horiz-adv-x="1322" d="M98 438v13h286q-6 -124 66.5 -192.5t207.5 -68.5q118 0 196 56t78 141q0 56 -48 92t-175 75l-181 55q-212 65 -299 150t-87 227q0 198 144.5 324.5t371.5 126.5q255 0 391 -112q126 -103 126 -280l-1 -31h-286q-3 97 -63.5 151t-166.5 54q-99 0 -164.5 -51.5 t-65.5 -128.5q0 -65 60 -109q60 -43 218 -91l181 -55q181 -55 256 -139q75 -83 75 -230q0 -195 -157 -319t-403 -124q-284 0 -424 119q-136 116 -136 347z" />
<glyph unicode="&#x406;" horiz-adv-x="566" d="M141 0v1409h145h145v-1409h-145h-145z" />
<glyph unicode="&#x407;" horiz-adv-x="566" d="M-35 1547v242h234v-242h-234zM141 0v1409h145h145v-1409h-145h-145zM374 1547v242h234v-242h-234z" />
<glyph unicode="&#x408;" horiz-adv-x="1133" d="M32 437h290q6 -128 48.5 -186.5t131.5 -58.5q109 0 155.5 57.5t46.5 193.5v966h145h145v-956q7 -231 -124 -356t-381 -125q-236 0 -352 117.5t-105 347.5z" />
<glyph unicode="&#x409;" horiz-adv-x="2077" d="M30 0v265h26q99 0 138 60.5t39 213.5v870h1002v-565h210q291 0 429 -103t138 -320q0 -225 -138 -323t-453 -98h-331h-145v1191h-422v-652q1 -293 -87 -416t-298 -123h-108zM1235 218h186q150 0 227 51.5t77 151.5q0 97 -73.5 151t-206.5 54h-210v-408z" />
<glyph unicode="&#x40a;" horiz-adv-x="2115" d="M154 0v1409h145h145v-568h539v568h145h145v-565h210q291 0 429 -103t138 -320q0 -225 -138 -323t-453 -98h-331h-145v623h-539v-623h-145h-145zM1273 218h186q150 0 227 51.5t77 151.5q0 97 -73.5 151t-206.5 54h-210v-408z" />
<glyph unicode="&#x40b;" horiz-adv-x="1548" d="M34 1191v109v109h1150v-109v-109h-430v-363l55 14q128 31 250 31q213 0 319.5 -120t106.5 -361v-392h-145h-145v417q0 131 -52 199.5t-151 68.5q-62 0 -138 -18t-100 -39v-628h-145h-145v1191h-430z" />
<glyph unicode="&#x40c;" horiz-adv-x="1322" d="M147 0v1409h145h145v-529h75q129 0 188 55q47 45 64 136q32 169 124 253.5t245 84.5h83v-216h-42q-72 0 -110.5 -30.5t-43.5 -91.5l-2 -30q-13 -169 -149 -241l-30 -14q34 -11 61 -25q155 -77 211 -258l86 -283q30 -100 49 -149t34 -70h-151h-151q-9 23 -25 72.5 t-46 146.5l-61 199q-38 124 -113 177t-213 53h-83v-649h-145h-145zM544 1530l199 303h307l-281 -303h-225z" />
<glyph unicode="&#x40e;" horiz-adv-x="1322" d="M14 1409h171h172l322 -551l286 551h156h157l-734 -1409h-166h-166l328 574h-4zM331 1788h175q9 -56 46.5 -88.5t93.5 -32.5q64 0 98 29.5t42 91.5h175q6 -122 -79.5 -194t-235.5 -72t-235.5 72t-79.5 194z" />
<glyph unicode="&#x40f;" horiz-adv-x="1473" d="M154 0v1409h145h145v-1191h584v1191h145h145v-1409h-437v-320h-290v320h-437z" />
<glyph unicode="&#x410;" horiz-adv-x="1511" d="M42 0l524 1409h185h186l523 -1409h-156h-156l-101 300h-596l-100 -300h-154h-155zM524 518h450l-226 667z" />
<glyph unicode="&#x411;" d="M152 0v1409h959v-109v-109h-669v-347h210q291 0 429 -103t138 -320q0 -225 -138 -323t-453 -98h-331h-145zM442 218h186q150 0 227 51.5t77 151.5q0 97 -73.5 151t-206.5 54h-210v-408z" />
<glyph unicode="&#x412;" d="M152 0v1409h145h391q235 0 356 -88t121 -260q0 -171 -139 -259q-61 -38 -146 -59q112 -25 187 -70q157 -95 157 -289q0 -190 -138.5 -287t-408.5 -97h-380h-145zM442 218h173q159 0 240.5 52.5t81.5 155.5q0 89 -70.5 143t-187.5 54h-237v-405zM442 841h104 q171 0 251.5 41t80.5 128q0 89 -68.5 135t-202.5 46h-165v-350z" />
<glyph unicode="&#x413;" horiz-adv-x="1148" d="M143 0v1409h958v-109v-109h-668v-1191h-145h-145z" />
<glyph unicode="&#x414;" horiz-adv-x="1435" d="M20 218h172h-1q44 104 82 253q102 408 102 938h875v-1191h108v-538h-261v320h-816v-320h-261v538zM481 218h479v973h-298q-20 -396 -100 -721q-37 -149 -81 -252z" />
<glyph unicode="&#x415;" horiz-adv-x="1171" d="M142 0v1409h928v-109v-109h-638v-350h600v-109v-109h-600v-405h657v-109v-109h-947z" />
<glyph unicode="&#x416;" horiz-adv-x="1851" d="M-3 1q14 20 30.5 69.5t44.5 149.5l77 283q49 181 191 258q27 15 60 26l-25 13q-122 72 -135 241l-2 30q-5 61 -40.5 91.5t-103.5 30.5h-37v216h75q151 0 241 -84.5t120 -253.5q15 -91 54 -136q48 -55 151 -55h67v529h145h145v-529h67q103 0 152 55q39 45 52 136 q27 169 117 253.5t245 84.5h75v-216h-37q-68 0 -103.5 -30.5t-40.5 -91.5l-2 -30q-13 -169 -136 -241l-24 -13q34 -10 61 -26q141 -77 190 -258l76 -283q27 -98 44 -147.5t32 -71.5h-151h-151q2 -4 -63 219l-55 199q-34 124 -97 177t-176 53h-75v-649h-145h-145v649h-75 q-113 0 -176 -53t-97 -177l-55 -199q-65 -223 -63 -219h-151h-151z" />
<glyph unicode="&#x417;" horiz-adv-x="1171" d="M61 465h243q6 -130 72 -202.5t179 -72.5q116 0 180.5 57t64.5 159q0 103 -70 160t-196 57h-114v218h129q119 0 185 49.5t66 138.5q0 90 -59.5 140t-166.5 50q-102 0 -165 -68.5t-74 -192.5h-243q-10 222 123 350.5t374 128.5q236 0 367 -97t131 -272q0 -174 -131 -271 q-58 -43 -137 -67q77 -28 133 -71q135 -104 135 -292q0 -187 -135 -291t-378 -104q-249 0 -386.5 132t-126.5 361z" />
<glyph unicode="&#x418;" horiz-adv-x="1473" d="M154 0v1409h133h133v-1084l492 1084h203h203v-1409h-133h-133v1084l-492 -1084h-203h-203z" />
<glyph unicode="&#x419;" horiz-adv-x="1473" d="M154 0v1409h133h133v-1084l492 1084h203h203v-1409h-133h-133v1084l-492 -1084h-203h-203zM421 1788h175q9 -56 46.5 -88.5t93.5 -32.5q64 0 98 29.5t42 91.5h175q6 -122 -79.5 -194t-235.5 -72t-235.5 72t-79.5 194z" />
<glyph unicode="&#x41a;" horiz-adv-x="1322" d="M147 0v1409h145h145v-529h75q129 0 188 55q47 45 64 136q32 169 124 253.5t245 84.5h83v-216h-42q-72 0 -110.5 -30.5t-43.5 -91.5l-2 -30q-13 -169 -149 -241l-30 -14q34 -11 61 -25q155 -77 211 -258l86 -283q30 -100 49 -149t34 -70h-151h-151q-9 23 -25 72.5 t-46 146.5l-61 199q-38 124 -113 177t-213 53h-83v-649h-145h-145z" />
<glyph unicode="&#x41b;" horiz-adv-x="1435" d="M30 0v265h26q99 0 138 60.5t39 213.5v870h1041v-1409h-145h-145v1191h-461v-652q1 -293 -87 -416t-298 -123h-108z" />
<glyph unicode="&#x41c;" horiz-adv-x="1851" d="M145 0v1409h241h242l295 -1121l290 1121h241h242v-1409h-133h-133v1303l-355 -1303h-154h-154l-356 1297v-1297h-133h-133z" />
<glyph unicode="&#x41d;" horiz-adv-x="1473" d="M154 0v1409h145h145v-568h584v568h145h145v-1409h-145h-145v623h-584v-623h-145h-145z" />
<glyph unicode="&#x41e;" horiz-adv-x="1548" d="M120 704q0 359 166.5 546t485.5 187q320 0 486 -187t166 -546t-166 -545.5t-486 -186.5q-319 0 -485.5 186.5t-166.5 545.5zM407 704q0 -252 93.5 -383t271.5 -131q179 0 272 131t93 383t-93 383.5t-272 131.5q-178 0 -271.5 -131.5t-93.5 -383.5z" />
<glyph unicode="&#x41f;" horiz-adv-x="1473" d="M154 0v1409h1164v-1409h-145h-145v1191h-584v-1191h-145h-145z" />
<glyph unicode="&#x420;" horiz-adv-x="1208" d="M149 0v1409h145h395q233 0 357 -112.5t124 -323.5q0 -214 -133 -324t-392 -110h-206v-539h-145h-145zM439 757h159q138 0 211.5 56t73.5 160q0 105 -64.5 161.5t-184.5 56.5h-195v-434z" />
<glyph unicode="&#x421;" horiz-adv-x="1435" d="M121 704q0 359 166.5 546t485.5 187q247 0 408 -138q154 -131 153 -320v-21h-287q-11 124 -88.5 192.5t-204.5 68.5q-169 0 -257.5 -131.5t-88.5 -383.5t90.5 -383t262.5 -131q132 0 209 72.5t83 202.5h287q10 -209 -159 -351t-427 -142q-310 0 -471.5 186.5 t-161.5 545.5z" />
<glyph unicode="&#x422;" d="M67 1191v109v109h1150v-109v-109h-430v-1191h-145h-145v1191h-430z" />
<glyph unicode="&#x423;" horiz-adv-x="1322" d="M14 1409h171h172l322 -551l286 551h156h157l-734 -1409h-166h-166l328 574h-4z" />
<glyph unicode="&#x424;" horiz-adv-x="1699" d="M120 704q0 249 167 379q148 115 415 127v199h145h145v-199q269 -13 416 -128q167 -129 167 -378q0 -248 -167 -378q-147 -113 -416 -128v-198h-145h-145v199q-267 13 -415 128q-167 129 -167 377zM407 704q0 -142 94 -216q74 -57 201 -70v572q-127 -11 -201 -70 q-94 -74 -94 -216zM992 418q129 13 202 71q94 73 94 215t-94 216q-73 58 -202 71v-573z" />
<glyph unicode="&#x425;" horiz-adv-x="1473" d="M50 0l516 728l-473 681h175h176l315 -480l307 480h161h162l-469 -682l510 -727h-178h-178l-350 526l-348 -526h-163h-163z" />
<glyph unicode="&#x426;" horiz-adv-x="1473" d="M154 0v1409h145h145v-1191h584v1191h145h145v-1191h108v-538h-261v320h-1011z" />
<glyph unicode="&#x427;" d="M73 1036v372h145h145v-397q0 -141 55.5 -214.5t162.5 -73.5q68 0 150 18t106 39v628h145h145v-1409h-145h-145v583l-59 -16q-133 -31 -262 -31q-222 0 -332.5 125t-110.5 376z" />
<glyph unicode="&#x428;" horiz-adv-x="2178" d="M154 0v1409h145h145v-1191h499v1191h145h145v-1191h500v1191h145h145v-1409h-1869z" />
<glyph unicode="&#x429;" horiz-adv-x="2178" d="M154 0v1409h145h145v-1191h499v1191h145h145v-1191h500v1191h145h145v-1191h108v-538h-261v320h-1716z" />
<glyph unicode="&#x42a;" horiz-adv-x="1500" d="M32 1191v109v109h625v-565h210q291 0 429 -103t138 -320q0 -225 -138 -323t-453 -98h-331h-145v1191h-335zM657 218h186q150 0 227 51.5t77 151.5q0 97 -73.5 151t-206.5 54h-210v-408z" />
<glyph unicode="&#x42b;" horiz-adv-x="1849" d="M152 0v1409h145h145v-565h210q291 0 429 -103t138 -320q0 -225 -138 -323t-453 -98h-331h-145zM442 218h186q150 0 227 51.5t77 151.5q0 97 -73.5 151t-206.5 54h-210v-408zM1422 0v1409h145h145v-1409h-145h-145z" />
<glyph unicode="&#x42c;" d="M152 0v1409h145h145v-565h210q291 0 429 -103t138 -320q0 -225 -138 -323t-453 -98h-331h-145zM442 218h186q150 0 227 51.5t77 151.5q0 97 -73.5 151t-206.5 54h-210v-408z" />
<glyph unicode="&#x42d;" horiz-adv-x="1435" d="M121 465h287q6 -130 83 -202.5t209 -72.5q172 0 262 131q76 109 88 302h-463v218h458q-18 154 -80 246q-89 132 -258 132q-127 0 -204.5 -68.5t-88.5 -192.5h-287v21q-1 189 153 320q161 138 408 138q319 0 485.5 -187t166.5 -546t-161.5 -545.5t-471.5 -186.5 q-258 0 -427 142t-159 351z" />
<glyph unicode="&#x42e;" horiz-adv-x="2077" d="M141 0v1409h145h145v-568h224q28 260 161 409q166 187 485 187q320 0 486 -187t166 -546t-166 -545.5t-486 -186.5q-319 0 -486 187q-146 167 -165 464h-219v-623h-145h-145zM936 704q0 -252 93.5 -383t271.5 -131q179 0 272 131t93 383t-93 383.5t-272 131.5 q-178 0 -271.5 -131.5t-93.5 -383.5z" />
<glyph unicode="&#x42f;" d="M33 1h154h154q9 26 18.5 75t22.5 144l7 52q24 187 103 244.5t314 57.5h50v-574h145h145v1409h-145h-414q-243 0 -373 -99.5t-130 -285.5q0 -190 139 -287q56 -39 133 -62q-36 -10 -65 -24q-147 -69 -170 -251q-12 -101 -27 -180q-14 -76 -28 -125t-33 -94zM371 991 q0 97 70 148.5t202 51.5h213v-399h-174q-150 0 -230.5 51.5t-80.5 147.5z" />
<glyph unicode="&#x430;" horiz-adv-x="1095" d="M88 275q0 176 125.5 264t376.5 88h126v45q0 85 -41.5 124.5t-130.5 39.5q-78 0 -113.5 -31t-35.5 -99h-267q7 153 109 228.5t301 75.5q222 0 333.5 -93.5t111.5 -280.5v-354q0 -111 6.5 -185t17.5 -97h-251l-22 117l-29 -35q-103 -110 -274 -110q-162 0 -252.5 79.5 t-90.5 223.5zM351 288q0 -67 43 -104t120 -37q95 0 144.5 61t57.5 188v79h-73q-138 0 -215 -49t-77 -138z" />
<glyph unicode="&#x431;" horiz-adv-x="1133" d="M91 575q1 420 101.5 581t367.5 170q109 3 170.5 32.5t61.5 78.5h175q-9 -120 -125 -195t-312 -87q-156 -10 -205 -134q-20 -51 -28 -137q3 8 8 12q93 114 262 114q226 0 351 -137t125 -383q0 -245 -125 -382q-125 -136 -351 -136t-351 158.5t-125 444.5zM357 490 q0 -170 53 -256.5t157 -86.5q103 0 156.5 87.5t53.5 255.5q0 171 -53 258t-157 87q-103 0 -156.5 -88t-53.5 -257z" />
<glyph unicode="&#x432;" horiz-adv-x="1020" d="M101 0v982h133h313q190 0 287.5 -62t97.5 -182q0 -119 -112 -181q-43 -24 -103 -38q82 -18 138 -47q126 -67 126 -203q0 -133 -112 -201t-331 -68h-304h-133zM368 175h121q112 0 169 32t57 95q0 54 -49.5 87t-131.5 33h-166v-247zM368 597h71q117 0 172 24.5t55 76.5 q0 54 -47 81.5t-138 27.5h-113v-210z" />
<glyph unicode="&#x433;" horiz-adv-x="855" d="M108 0v982h718v-88v-89h-451v-805h-133h-134z" />
<glyph unicode="&#x434;" horiz-adv-x="1100" d="M36 177h113q19 63 38 145q61 285 61 660h696v-805h106v-400h-240v223h-534v-223h-240v400zM415 177h262v628h-165q-12 -266 -59 -483q-17 -82 -38 -145z" />
<glyph unicode="&#x435;" horiz-adv-x="1095" d="M87 490q0 231 129 375.5t334 144.5q234 0 348.5 -128t114.5 -388v-4l-2 -64h-658q6 -137 48 -204q47 -75 153 -75q81 0 127 41.5t47 115.5h266q-15 -157 -131.5 -244.5t-312.5 -87.5q-219 0 -341 136.5t-122 381.5zM360 603h390q-8 107 -38 157q-43 75 -154 75t-158 -86 q-28 -51 -40 -146z" />
<glyph unicode="&#x436;" horiz-adv-x="1435" d="M25 1q15 23 33 72t46 147l38 131q37 126 140 180l4 3q-69 52 -84 154q-7 42 -29.5 62.5t-61.5 20.5h-27v211h55q131 0 207 -61.5t98 -184.5q11 -67 33 -99t64 -32h49v377h133h134v-377h48q42 0 65 34q21 30 32 97q22 123 98 184.5t208 61.5h55v-211h-27 q-40 0 -62.5 -20.5t-29.5 -62.5q-14 -101 -84 -153l4 -4q103 -54 140 -180l38 -131q28 -98 46 -147t33 -72h-146h-147q5 -14 -66 219l-21 72q-22 75 -51.5 106.5t-78.5 31.5h-54v-430h-133h-134v430h-55q-49 0 -78.5 -31.5t-51.5 -106.5l-21 -72q-71 -233 -66 -219h-146 h-147z" />
<glyph unicode="&#x437;" horiz-adv-x="868" d="M36 324h226q3 -76 41 -118t102 -42q79 0 123 33.5t44 94.5q0 62 -47.5 96t-133.5 34h-74v176h95q76 0 118 31t42 87t-36.5 87.5t-101.5 31.5q-62 0 -100.5 -44t-46.5 -123h-226q-7 159 97 250.5t291 91.5q184 0 286.5 -69t102.5 -194q0 -124 -103 -193q-42 -28 -98 -45 q54 -19 96 -48q105 -74 105 -208q0 -133 -108 -207t-302 -74q-189 0 -294 94.5t-98 257.5z" />
<glyph unicode="&#x438;" horiz-adv-x="1133" d="M101 0v982h133h134v-661l338 661h165h165v-982h-133h-134v661l-338 -661h-165h-165z" />
<glyph unicode="&#x439;" horiz-adv-x="1133" d="M101 0v982h133h134v-661l338 661h165h165v-982h-133h-134v661l-338 -661h-165h-165zM255 1400h175q2 -64 39 -102t99 -38q71 0 105 34.5t34 105.5h175q7 -145 -75 -224t-239 -79t-238.5 79t-74.5 224z" />
<glyph unicode="&#x43a;" horiz-adv-x="1020" d="M108 0v982h133h134v-377h54q59 0 90 34q26 30 40 97q28 123 105 184.5t205 61.5h60v-211h-30q-44 0 -68.5 -20.5t-31.5 -62.5q-15 -101 -92 -155l3 -2q112 -54 153 -180l43 -131q36 -105 55 -154t31 -65h-146h-147q-9 20 -26 69t-49 150l-23 72q-24 75 -62.5 106.5 t-103.5 31.5h-60v-430h-133h-134z" />
<glyph unicode="&#x43b;" horiz-adv-x="1133" d="M27 -8v204h17q86 0 120 38.5t34 136.5v611h821v-982h-133h-134v805h-287v-434q0 -206 -78 -292.5t-263 -86.5h-97z" />
<glyph unicode="&#x43c;" horiz-adv-x="1511" d="M71 0v982h221h222l244 -792l240 792h221h222v-982h-133h-133v791l-265 -791h-154h-154l-265 784v-784h-133h-133z" />
<glyph unicode="&#x43d;" horiz-adv-x="1133" d="M101 0v982h133h134v-384h401v384h133h134v-982h-133h-134v421h-401v-421h-133h-134z" />
<glyph unicode="&#x43e;" horiz-adv-x="1171" d="M91 490q0 246 130.5 383t364.5 137q235 0 365 -137t130 -383q0 -245 -130 -381.5t-365 -136.5q-234 0 -364.5 136.5t-130.5 381.5zM357 490q0 -177 55.5 -260t173.5 -83q112 0 170.5 87.5t58.5 255.5q0 171 -58 258t-171 87q-112 0 -170.5 -88t-58.5 -257z" />
<glyph unicode="&#x43f;" horiz-adv-x="1133" d="M101 0v982h935v-982h-133h-134v805h-401v-805h-133h-134z" />
<glyph unicode="&#x440;" horiz-adv-x="1171" d="M123 -366v1348h129h130v-124l12 15q104 137 293 137t293 -137t104 -383q0 -245 -111.5 -381.5t-312.5 -136.5q-168 1 -270 119v-457h-133h-134zM378 491q-9 -155 51.5 -249.5t168.5 -94.5q106 0 164.5 90.5t58.5 252.5q0 163 -58.5 254t-163.5 91t-163 -90.5t-58 -253.5z " />
<glyph unicode="&#x441;" horiz-adv-x="1095" d="M104 490q0 246 130 383t363 137q203 0 307 -91t113 -276h-266q0 91 -45.5 141.5t-127.5 50.5q-102 0 -155 -88t-53 -257q0 -170 52.5 -256.5t155.5 -86.5q90 0 135.5 54.5t37.5 152.5h266q0 -181 -115.5 -281.5t-323.5 -100.5q-224 0 -349 136.5t-125 381.5z" />
<glyph unicode="&#x442;" horiz-adv-x="944" d="M44 805v88v89h857v-88v-89h-295v-805h-133h-134v805h-295z" />
<glyph unicode="&#x443;" horiz-adv-x="1133" d="M50 982h149h149l221 -646l240 646h137h138l-540 -1351h-128h-128l161 367z" />
<glyph unicode="&#x444;" horiz-adv-x="1630" d="M91 490q0 246 100 383t279 137q131 0 212 -97v496h133h134v-494q83 96 211 95q180 0 280 -137t100 -383q0 -245 -99.5 -381.5t-279.5 -136.5q-137 0 -212 117v-455h-133h-134v458q-74 -120 -213 -120q-179 0 -278.5 136.5t-99.5 381.5zM354 490q0 -176 46 -259.5 t144 -83.5q75 0 111.5 90.5t26.5 253.5q0 179 -38 261.5t-120 82.5q-81 0 -125.5 -91t-44.5 -254zM949 491q-10 -163 26.5 -253.5t111.5 -90.5q90 0 140 90.5t50 252.5q0 177 -41.5 261t-129.5 84q-74 0 -115.5 -91t-41.5 -253z" />
<glyph unicode="&#x445;" horiz-adv-x="1133" d="M55 0l348 527l-308 455h170h171l159 -285l159 285h141h142l-301 -456l341 -526h-162h-163l-208 353l-209 -353h-140h-140z" />
<glyph unicode="&#x446;" horiz-adv-x="1133" d="M101 0v982h133h134v-805h401v805h133h134v-805h87v-400h-240v223h-782z" />
<glyph unicode="&#x447;" horiz-adv-x="1020" d="M33 713v269h133h134v-245q0 -108 46.5 -164t136.5 -56q49 0 103 8.5t66 18.5v438h133h134v-982h-133h-134v368l-29 -6q-110 -21 -224 -21q-183 0 -274.5 93t-91.5 279z" />
<glyph unicode="&#x448;" horiz-adv-x="1662" d="M101 0v982h133h134v-805h332v805h133h134v-805h331v805h133h134v-982h-1464z" />
<glyph unicode="&#x449;" horiz-adv-x="1662" d="M101 0v982h133h134v-805h332v805h133h134v-805h331v805h133h134v-805h87v-400h-240v223h-1311z" />
<glyph unicode="&#x44a;" horiz-adv-x="1171" d="M35 805v88v89h491v-330l147 -2q237 0 349.5 -79.5t112.5 -246.5q0 -173 -111.5 -248.5t-367.5 -75.5h-264h-133v805h-224zM526 175h130q105 0 159 37.5t54 111.5q0 72 -51.5 111.5t-144.5 39.5h-147v-300z" />
<glyph unicode="&#x44b;" horiz-adv-x="1497" d="M109 0v982h133h134v-330l147 -2q237 0 349.5 -79.5t112.5 -246.5q0 -173 -111.5 -248.5t-367.5 -75.5h-264h-133zM376 175h130q105 0 159 37.5t54 111.5q0 72 -51.5 111.5t-144.5 39.5h-147v-300zM1124 0v982h133h134v-982h-133h-134z" />
<glyph unicode="&#x44c;" horiz-adv-x="1020" d="M109 0v982h133h134v-330l147 -2q237 0 349.5 -79.5t112.5 -246.5q0 -173 -111.5 -248.5t-367.5 -75.5h-264h-133zM376 175h130q105 0 159 37.5t54 111.5q0 72 -51.5 111.5t-144.5 39.5h-147v-300z" />
<glyph unicode="&#x44d;" horiz-adv-x="1095" d="M104 354h239q-8 -98 44.5 -152.5t153.5 -54.5q111 0 162 82q38 62 49 173h-309v177h308q-11 106 -49 168q-54 88 -157 88q-93 0 -145 -50.5t-52 -141.5h-239q9 185 121.5 276t333.5 91q223 0 340 -132.5t117 -387.5q0 -254 -129 -386t-376 -132q-195 0 -303.5 100.5 t-108.5 281.5z" />
<glyph unicode="&#x44e;" horiz-adv-x="1662" d="M102 0v982h133h134v-384h221q22 170 123 275q130 137 364 137q235 0 365 -137t130 -383q0 -245 -130 -381.5t-365 -136.5q-234 0 -365 137q-110 119 -129 312h-214v-421h-133h-134zM848 490q0 -170 58 -256.5t171 -86.5q112 0 170.5 87.5t58.5 255.5q0 171 -58 258 t-171 87q-112 0 -170.5 -88t-58.5 -257z" />
<glyph unicode="&#x44f;" horiz-adv-x="1020" d="M-12 1h134h134q25 107 37 156.5t15 64.5q20 97 74 130q60 36 239 36h39v-388h133h134v982h-133h-330q-195 0 -299.5 -70t-104.5 -201q0 -133 112 -202q37 -23 85 -37l-42 -15q-118 -47 -142 -173l-13 -64q-15 -72 -31 -121t-41 -98zM326 684q0 59 48.5 91t139.5 32h146 v-244h-120q-104 0 -159 31t-55 90z" />
<glyph unicode="&#x451;" horiz-adv-x="1095" d="M87 490q0 231 129 375.5t334 144.5q234 0 348.5 -128t114.5 -388v-4l-2 -64h-658q6 -137 48 -204q47 -75 153 -75q81 0 127 41.5t47 115.5h266q-15 -157 -131.5 -244.5t-312.5 -87.5q-219 0 -341 136.5t-122 381.5zM245 1134v237h244v-237h-244zM360 603h390 q-8 107 -38 157q-43 75 -154 75t-158 -86q-28 -51 -40 -146zM649 1134v237h244v-237h-244z" />
<glyph unicode="&#x452;" horiz-adv-x="1171" d="M-50 1104v177h743v-177h-743zM127 0v1409h132h132v-584q19 41 44 72q90 113 272 113q175 0 262 -98.5t87 -295.5v-668q0 -191 -67.5 -263t-245.5 -72q-77 0 -143 7v167h22q92 0 129.5 36t37.5 125v671q0 97 -49 156t-130 59q-101 0 -160 -75.5t-59 -203.5v-555h-132h-132 z" />
<glyph unicode="&#x453;" horiz-adv-x="855" d="M108 0v982h718v-88v-89h-451v-805h-133h-134zM305 1103l199 303h307l-281 -303h-225z" />
<glyph unicode="&#x454;" horiz-adv-x="1095" d="M104 490q0 255 117 387.5t340 132.5q221 0 333.5 -91t121.5 -276h-239q0 91 -52 141.5t-145 50.5q-103 0 -157 -88q-38 -62 -49 -168h308v-177h-309q11 -111 49 -173q51 -82 162 -82q95 0 147 54.5t51 152.5h239q0 -181 -108.5 -281.5t-303.5 -100.5q-247 0 -376 132 t-129 386z" />
<glyph unicode="&#x455;" horiz-adv-x="1020" d="M87 309v5h254q3 -84 47 -125.5t130 -41.5q77 0 127.5 36t50.5 91q0 41 -31 66q-30 24 -110 46l-130 35q-170 46 -242 113q-71 67 -71 180q0 130 113.5 213t291.5 83q200 0 307 -83q100 -76 100 -208l-1 -22h-252q-2 70 -39.5 104t-114.5 34q-66 0 -109.5 -30t-43.5 -75 q0 -33 41 -58q41 -24 147 -53l130 -35q145 -40 206 -105q60 -65 60 -180q0 -144 -120.5 -235.5t-309.5 -91.5q-205 0 -318 90t-113 247z" />
<glyph unicode="&#x456;" horiz-adv-x="491" d="M102 1148v261h290v-261h-290zM114 0v982h133h134v-982h-133h-134z" />
<glyph unicode="&#x457;" horiz-adv-x="491" d="M-80 1134v237h244v-237h-244zM111 0v982h133h134v-982h-133h-134zM324 1134v237h244v-237h-244z" />
<glyph unicode="&#x458;" horiz-adv-x="491" d="M-80 -213h48q70 0 106.5 31t36.5 91v1073h133h134v-1073q0 -157 -74 -226.5t-240 -69.5l-144 3v171zM100 1148v261h290v-261h-290z" />
<glyph unicode="&#x459;" horiz-adv-x="1699" d="M27 -8v204h17q86 0 120 38.5t34 136.5v611h856v-330l147 -2q237 0 349.5 -79.5t112.5 -246.5q0 -173 -111.5 -248.5t-367.5 -75.5h-264h-133v805h-322v-434q0 -206 -78 -292.5t-263 -86.5h-97zM1054 175h130q105 0 159 37.5t54 111.5q0 72 -51.5 111.5t-144.5 39.5h-147 v-300z" />
<glyph unicode="&#x45a;" horiz-adv-x="1737" d="M101 0v982h133h134v-330h457v330h133h134v-330l147 -2q237 0 349.5 -79.5t112.5 -246.5q0 -173 -111.5 -248.5t-367.5 -75.5h-264h-133v475h-457v-475h-133h-134zM1092 175h130q105 0 159 37.5t54 111.5q0 72 -51.5 111.5t-144.5 39.5h-147v-300z" />
<glyph unicode="&#x45b;" horiz-adv-x="1171" d="M-50 1104v177h743v-177h-743zM127 0v1409h132h132v-584q19 41 44 72q90 113 272 113q175 0 262 -98.5t87 -295.5v-616h-133h-134v619q0 97 -49 156t-130 59q-101 0 -160 -75.5t-59 -203.5v-555h-132h-132z" />
<glyph unicode="&#x45c;" horiz-adv-x="1020" d="M108 0v982h133h134v-377h54q59 0 90 34q26 30 40 97q28 123 105 184.5t205 61.5h60v-211h-30q-44 0 -68.5 -20.5t-31.5 -62.5q-15 -101 -92 -155l3 -2q112 -54 153 -180l43 -131q36 -105 55 -154t31 -65h-146h-147q-9 20 -26 69t-49 150l-23 72q-24 75 -62.5 106.5 t-103.5 31.5h-60v-430h-133h-134zM373 1103l199 303h307l-281 -303h-225z" />
<glyph unicode="&#x45e;" horiz-adv-x="1133" d="M50 982h149h149l221 -646l240 646h137h138l-540 -1351h-128h-128l161 367zM254 1400h175q2 -64 39 -102t99 -38q71 0 105 34.5t34 105.5h175q7 -145 -75 -224t-239 -79t-238.5 79t-74.5 224z" />
<glyph unicode="&#x45f;" horiz-adv-x="1133" d="M101 0v982h133h134v-805h401v805h133h134v-982h-335v-223h-267v223h-333z" />
<glyph unicode="&#x490;" horiz-adv-x="1148" d="M143 0v1409h740v281h218v-499h-668v-1191h-145h-145z" />
<glyph unicode="&#x491;" horiz-adv-x="812" d="M108 0v982h501v196h177v-373h-411v-805h-133h-134z" />
<glyph unicode="&#x2000;" horiz-adv-x="916" />
<glyph unicode="&#x2001;" horiz-adv-x="1833" />
<glyph unicode="&#x2002;" horiz-adv-x="916" />
<glyph unicode="&#x2003;" horiz-adv-x="1833" />
<glyph unicode="&#x2004;" horiz-adv-x="611" />
<glyph unicode="&#x2005;" horiz-adv-x="458" />
<glyph unicode="&#x2006;" horiz-adv-x="305" />
<glyph unicode="&#x2007;" horiz-adv-x="305" />
<glyph unicode="&#x2008;" horiz-adv-x="229" />
<glyph unicode="&#x2009;" horiz-adv-x="366" />
<glyph unicode="&#x200a;" horiz-adv-x="101" />
<glyph unicode="&#x2010;" horiz-adv-x="680" d="M127 427v186h486v-186h-486z" />
<glyph unicode="&#x2011;" horiz-adv-x="680" d="M127 427v186h486v-186h-486z" />
<glyph unicode="&#x2012;" horiz-adv-x="680" d="M127 427v186h486v-186h-486z" />
<glyph unicode="&#x2013;" d="M184 447v146h986v-146h-986z" />
<glyph unicode="&#x2014;" horiz-adv-x="2039" d="M314 447v146h1464v-146h-1464z" />
<glyph unicode="&#x2018;" horiz-adv-x="680" d="M172 960l208 449h198l-130 -449h-276z" />
<glyph unicode="&#x2019;" horiz-adv-x="680" d="M152 960l130 449h276l-208 -449h-198z" />
<glyph unicode="&#x201a;" horiz-adv-x="680" d="M152 -180l126 448h272l-203 -448h-195z" />
<glyph unicode="&#x201c;" horiz-adv-x="1020" d="M125 960l208 449h198l-130 -449h-276zM494 960l208 449h198l-130 -449h-276z" />
<glyph unicode="&#x201d;" horiz-adv-x="1020" d="M124 960l130 449h276l-208 -449h-198zM493 960l130 449h276l-208 -449h-198z" />
<glyph unicode="&#x201e;" horiz-adv-x="1020" d="M124 -185l126 449h272l-203 -449h-195zM493 -185l126 449h272l-203 -449h-195z" />
<glyph unicode="&#x2022;" horiz-adv-x="1020" d="M140 733q0 155 107.5 262.5t262.5 107.5t262.5 -107.5t107.5 -262.5t-107.5 -262.5t-262.5 -107.5t-262.5 107.5t-107.5 262.5z" />
<glyph unicode="&#x2026;" horiz-adv-x="2039" d="M229 0v237h236v-237h-236zM896 0v237h236v-237h-236zM1564 0v237h236v-237h-236z" />
<glyph unicode="&#x202f;" horiz-adv-x="366" />
<glyph unicode="&#x2039;" horiz-adv-x="755" d="M138 495l183 379h239l-159 -379l159 -379h-239z" />
<glyph unicode="&#x203a;" horiz-adv-x="755" d="M120 116l159 379l-159 379h239l183 -379l-183 -379h-239z" />
<glyph unicode="&#x205f;" horiz-adv-x="458" />
<glyph unicode="&#x2122;" horiz-adv-x="1248" d="M59 1299v89h393v-89h-152v-518h-89v518h-152zM515 781v607h160l112 -486l112 486h160v-607h-89v559l-129 -559h-108l-129 559v-559h-89z" />
<glyph unicode="&#x25fc;" horiz-adv-x="980" d="M0 0v980h980v-980h-980z" />
</font>
</defs>
</svg>
