<?xml version="1.0" standalone="no"?>
<!DOCTYPE svg PUBLIC "-//W3C//DTD SVG 1.1//EN" "http://www.w3.org/Graphics/SVG/1.1/DTD/svg11.dtd" >
<svg xmlns="http://www.w3.org/2000/svg">
<metadata></metadata>
<defs>
<font id="universmedium" horiz-adv-x="1284" >
<font-face units-per-em="2048" ascent="1638" descent="-410" />
<missing-glyph horiz-adv-x="680" />
<glyph horiz-adv-x="0" />
<glyph horiz-adv-x="682" />
<glyph unicode=" "  horiz-adv-x="680" />
<glyph unicode="&#x09;" horiz-adv-x="680" />
<glyph unicode="&#xa0;" horiz-adv-x="680" />
<glyph unicode="!" horiz-adv-x="680" d="M239 1411h210l-42 -1057h-126zM246 0v202h196v-202h-196z" />
<glyph unicode="&#x22;" horiz-adv-x="1020" d="M221 1411h229l-60 -476h-109zM570 1411h229l-60 -476h-109z" />
<glyph unicode="#" d="M146 416l37 129h892l-37 -129h-892zM206 -30l416 1434h146l-416 -1434h-146zM289 911l37 129h892l-37 -129h-892zM596 -30l416 1434h146l-416 -1434h-146z" />
<glyph unicode="$" d="M269 522h184q12 -93 68.5 -141.5t152.5 -48.5q105 0 163 42t58 119q0 48 -29 79q-28 31 -88 46l-249 64q-121 31 -175 93q-53 61 -53 170q0 133 99 208.5t274 75.5q201 0 292 -70q83 -63 82 -184l-1 -30h-185q5 70 -46.5 113t-141.5 43t-139 -35t-49 -99q0 -50 21 -79 q20 -29 63 -40l249 -64q138 -35 199 -99t61 -174q0 -147 -107.5 -231t-297.5 -84q-185 0 -292.5 86.5t-112.5 239.5zM578 -58v390h192v-390h-192zM578 1101v368h192v-368h-192z" />
<glyph unicode="%" horiz-adv-x="2039" d="M254 1046q0 174 94.5 281t247.5 107t247.5 -107t94.5 -281q0 -177 -94.5 -286.5t-247.5 -109.5t-247.5 109.5t-94.5 286.5zM410 1045q0 -127 50.5 -202.5t135.5 -75.5q89 0 137.5 72.5t48.5 205.5q0 130 -48.5 201t-137.5 71q-85 0 -135.5 -74t-50.5 -198zM563 -69 l843 1518h130l-843 -1518h-130zM1159 370q0 174 94.5 281t247.5 107t247.5 -107t94.5 -281q0 -177 -94.5 -286.5t-247.5 -109.5t-247.5 109.5t-94.5 286.5zM1315 369q0 -127 50.5 -202.5t135.5 -75.5q89 0 137.5 72.5t48.5 205.5q0 130 -48.5 201t-137.5 71 q-85 0 -135.5 -74t-50.5 -198z" />
<glyph unicode="&#x26;" horiz-adv-x="1548" d="M159 411q0 132 99 254q78 95 202 166q-42 53 -74 106q-69 114 -69 188q0 147 91 230.5t251 83.5t250.5 -76.5t90.5 -211.5q0 -105 -98 -207q-74 -78 -193 -140l391 -406q12 31 18 60q17 87 17 360h88h88q0 -292 -27 -398q-17 -66 -65 -146l264 -274h-124h-125l-126 134 q-68 -65 -168 -107q-131 -55 -285 -55q-232 0 -364 117t-132 322zM339 410q0 -111 100 -203q99 -92 219 -92q113 0 210 43q77 35 132 91l-422 447l-26 28q-83 -51 -136 -116q-77 -94 -77 -198zM495 1139q0 -54 53 -138q28 -45 69 -95q77 41 128 89q75 73 75 151 q0 71 -42.5 110t-119.5 39q-78 0 -121 -41q-42 -41 -42 -115z" />
<glyph unicode="'" horiz-adv-x="680" d="M221 1411h229l-57 -476h-114z" />
<glyph unicode="(" horiz-adv-x="680" d="M197 604q0 139 62.5 372.5t152.5 433.5h128q-56 -141 -110 -407t-54 -399q0 -155 52 -421t106 -385h-128q-88 194 -149 428q-60 234 -60 378z" />
<glyph unicode=")" horiz-adv-x="680" d="M132 -202q55 140 109 406t54 400q0 156 -52 422t-105 384h128q87 -194 148 -428q60 -233 60 -378q0 -140 -62 -373.5t-152 -432.5h-128z" />
<glyph unicode="*" d="M317 1017v141l294 -36l-181 234l122 73l120 -273l114 275l124 -70l-178 -240l295 36v-141l-294 36l181 -234l-122 -73l-120 273l-114 -275l-124 70l178 240z" />
<glyph unicode="+" horiz-adv-x="2039" d="M475 504v120h513v513h120v-513h513v-120h-513v-513h-120v513h-513z" />
<glyph unicode="," horiz-adv-x="680" d="M168 -238l129 476h208l-213 -476h-124z" />
<glyph unicode="-" horiz-adv-x="680" d="M93 464v133h486v-133h-486z" />
<glyph unicode="." horiz-adv-x="680" d="M237 0v238h218v-238h-218z" />
<glyph unicode="/" horiz-adv-x="680" d="M91 -106l449 1517h114l-449 -1517h-114z" />
<glyph unicode="0" d="M98 708q0 324 150.5 524t393.5 200q244 0 394 -200t150 -524q0 -332 -150 -536t-394 -204q-243 0 -393.5 204t-150.5 536zM283 706q0 -264 97.5 -421t261.5 -157t261.5 157t97.5 421q0 259 -97.5 412.5t-261.5 153.5t-261.5 -153.5t-97.5 -412.5z" />
<glyph unicode="1" d="M309 1010v176q110 43 181 88q71 46 157 129h160v-1403h-94h-95v1185q-44 -36 -85 -64q-87 -58 -224 -111z" />
<glyph unicode="2" d="M168 0v84v85q341 256 551 500q210 243 210 381q0 105 -70.5 167.5t-189.5 62.5q-116 0 -188 -69t-72 -181h-183q0 184 120 293t323 109q198 0 321 -103q122 -103 122 -271q0 -211 -215 -462q-176 -205 -499 -442h743v-154h-973z" />
<glyph unicode="3" d="M142 385h193q31 -120 113 -188.5t196 -68.5q142 0 226 76t84 204q0 107 -91 170.5t-244 63.5h-77v158h63q137 0 229 70q91 69 91 172q0 109 -76 173.5t-204 64.5q-125 0 -202.5 -65t-77.5 -171h-183q0 178 126 283t339 105q209 0 337.5 -102.5t128.5 -269.5 q0 -171 -129 -276q-46 -38 -103 -62q80 -22 137 -62q125 -89 125 -266q0 -191 -138.5 -308.5t-362.5 -117.5q-194 0 -332 115t-168 302z" />
<glyph unicode="4" d="M95 353v85v85l622 888h111h112v-904h267v-154h-267v-353h-189v353h-656zM260 507h491v703l-480 -687z" />
<glyph unicode="5" d="M179 363h193q25 -122 91 -178.5t183 -56.5q126 0 200.5 90t74.5 241q0 148 -74.5 236.5t-200.5 88.5q-100 0 -168 -57t-78 -149h-189l12 825h817v-154h-640l-11 -454q41 44 75 70q95 71 238 71q185 0 299 -132q113 -132 113 -347q0 -219 -129 -354t-339 -135 q-190 0 -319 109t-148 286z" />
<glyph unicode="6" d="M155 635q0 383 144 590q143 207 407 207q197 0 309 -99.5t112 -274.5h-185q0 102 -63 160t-173 58q-179 0 -276 -185q-74 -140 -90 -375q20 32 45 59q135 152 331 152q198 0 319.5 -131t121.5 -343q0 -217 -138.5 -351t-362.5 -134q-241 0 -371 173.5t-130 493.5z M371 451q0 -148 81.5 -235.5t218.5 -87.5q138 0 219.5 87.5t81.5 235.5q0 144 -73.5 230t-197.5 86q-151 0 -241 -86q-89 -86 -89 -230z" />
<glyph unicode="7" d="M164 1253v158h959v-86v-87l-541 -1238h-227l562 1238l7 15h-760z" />
<glyph unicode="8" d="M139 372q0 177 139 287q65 51 151 79q-72 24 -126 68q-129 101 -129 266q0 161 129 260.5t339 99.5t339 -99.5t129 -260.5q0 -165 -129 -267q-55 -44 -126 -68q85 -26 152 -79q139 -109 139 -286q0 -181 -139 -292.5t-365 -111.5q-225 0 -364 111.5t-139 292.5zM324 395 q0 -122 86.5 -194.5t231.5 -72.5q146 0 232.5 72.5t86.5 194.5q0 119 -87 190q-86 71 -232 71q-145 0 -231.5 -71t-86.5 -190zM359 1046q0 -105 77 -168q77 -62 206 -62t206 62.5t77 167.5q0 103 -77 164.5t-206 61.5t-206 -61.5t-77 -164.5z" />
<glyph unicode="9" d="M155 342h185q12 -109 77 -163.5t182 -54.5q201 0 283 160q71 138 79 443q-19 -33 -44 -61q-122 -144 -298 -144q-208 0 -336 124t-128 326q0 206 136.5 333t357.5 127q247 0 370.5 -177t122.5 -532q-1 -378 -137 -567q-135 -188 -406 -188q-201 0 -312.5 94t-131.5 280z M340 974q0 -133 76.5 -212.5t205.5 -79.5q139 0 222 80q82 79 82 212q0 136 -79.5 217t-213.5 81t-213.5 -81t-79.5 -217z" />
<glyph unicode=":" horiz-adv-x="680" d="M237 0v238h218v-238h-218zM237 745v238h218v-238h-218z" />
<glyph unicode=";" horiz-adv-x="680" d="M168 -238l129 476h208l-213 -476h-124zM265 745v238h218v-238h-218z" />
<glyph unicode="&#x3c;" horiz-adv-x="2039" d="M410 542v72v72l1225 549v-145l-1066 -475l1066 -479v-145z" />
<glyph unicode="=" horiz-adv-x="2039" d="M474 335v120h1150v-120h-1150zM474 707v120h1150v-120h-1150z" />
<glyph unicode="&#x3e;" horiz-adv-x="2039" d="M410 -9v145l1066 479l-1066 475v145l1225 -549v-72v-72z" />
<glyph unicode="?" horiz-adv-x="1057" d="M209 1239v144q60 19 127 30.5t122 11.5q199 0 312 -92t113 -254q0 -121 -115 -258q-64 -77 -188 -183q-34 -29 -48 -56t-14 -64v-163h-160v223q0 26 10.5 46t36.5 43q151 132 214 213q71 91 71 172q0 102 -70 158q-69 55 -196 55q-60 0 -119.5 -7t-95.5 -19zM340 0v202 h196v-202h-196z" />
<glyph unicode="@" horiz-adv-x="2040" d="M159 712q0 425 242 674.5t653 249.5q381 0 604 -224.5t223 -607.5q0 -267 -108 -424t-291 -157q-122 0 -194 97q-20 28 -36 61l-24 -34q-98 -124 -270 -124q-154 0 -260.5 134.5t-106.5 329.5t108 329.5t265 134.5q149 0 252 -122v95h181v-541q0 -87 34 -138.5t92 -51.5 q74 0 117 111t43 300q0 305 -171.5 483.5t-464.5 178.5q-317 0 -503.5 -203.5t-186.5 -550.5t196.5 -551t532.5 -204q97 0 188 10.5t125 26.5v-170q-34 -16 -124 -26.5t-186 -10.5q-428 0 -679 249.5t-251 675.5zM779 687q0 -137 63 -231t155 -94q104 0 161.5 85t57.5 240 q0 143 -61.5 234t-157.5 91q-92 0 -155 -94t-63 -231z" />
<glyph unicode="A" horiz-adv-x="1511" d="M67 0l579 1411h106h106l579 -1411h-105h-105l-142 368h-664l-140 -368h-107h-107zM483 528h541l-271 701z" />
<glyph unicode="B" d="M179 0v1411h96h361q257 0 387 -87t130 -259q0 -176 -130 -265q-50 -34 -119 -56q96 -22 164 -71q137 -97 137 -291q0 -190 -124.5 -286t-372.5 -96h-433h-96zM372 160h319q169 0 245 58.5t76 189.5q0 118 -90.5 180.5t-261.5 62.5h-288v-491zM372 815h264q164 0 244 52 t80 159q0 114 -80 169.5t-244 55.5h-264v-436z" />
<glyph unicode="C" horiz-adv-x="1435" d="M141 699q0 346 168 543t463 197q247 0 393 -109t146 -293h-198q0 107 -88.5 173t-232.5 66q-216 0 -334.5 -145t-118.5 -409q0 -281 116.5 -435t327.5 -154q140 0 228 64t102 177h198q-5 -180 -154 -291t-385 -111q-295 0 -463 193.5t-168 533.5z" />
<glyph unicode="D" horiz-adv-x="1473" d="M186 0v1411h96h351q354 0 532 -182t178 -544q0 -341 -168.5 -513t-503.5 -172h-389h-96zM379 160h293q248 0 363.5 133.5t114.5 418.5q1 273 -127 406t-390 133h-254v-1091z" />
<glyph unicode="E" horiz-adv-x="1171" d="M184 0v1411h860v-80v-80h-667v-445h641v-80v-80h-641v-486h685v-80v-80h-878z" />
<glyph unicode="F" horiz-adv-x="1133" d="M180 0v1411h869v-80v-80h-676v-445h641v-80v-80h-641v-646h-96h-97z" />
<glyph unicode="G" horiz-adv-x="1511" d="M131 684q0 353 180.5 554t496.5 201q239 0 380.5 -105t141.5 -283h-193q-8 101 -99 163t-230 62q-230 0 -357 -148t-127 -418q0 -281 124.5 -429.5t359.5 -148.5q186 1 329 42v427h-316v168h509v-714q-214 -83 -536 -83q-310 0 -486.5 189.5t-176.5 522.5z" />
<glyph unicode="H" horiz-adv-x="1473" d="M179 0v1411h96h97v-603h727v603h96h97v-1411h-96h-97v644h-727v-644h-96h-97z" />
<glyph unicode="I" horiz-adv-x="566" d="M188 0v1411h96h97v-1411h-96h-97z" />
<glyph unicode="J" horiz-adv-x="1133" d="M73 367h193q15 -123 71 -178t166 -55q129 0 194.5 71t65.5 209v997h96h97v-974q0 -232 -115 -348.5t-344 -116.5q-197 0 -307.5 103t-116.5 292z" />
<glyph unicode="K" horiz-adv-x="1360" d="M206 0v1411h96h97v-613l577 613h123h124l-614 -629l668 -782h-127h-128l-623 754v-754h-96h-97z" />
<glyph unicode="L" horiz-adv-x="1095" d="M179 0v1411h96h97v-1251h666v-80v-80h-859z" />
<glyph unicode="M" horiz-adv-x="1850" d="M173 0v1411h156h157l443 -1181l429 1181h156h157v-1411h-96h-97v1265l-453 -1265h-97h-97l-465 1263v-1263h-96h-97z" />
<glyph unicode="N" horiz-adv-x="1473" d="M169 0v1411h125h126l689 -1183v1183h96h96v-1411h-129h-130l-681 1170v-1170h-96h-96z" />
<glyph unicode="O" horiz-adv-x="1548" d="M135 714q0 339 168.5 532t463.5 193q297 0 465 -193t168 -532q0 -347 -168 -544.5t-465 -197.5q-295 0 -463.5 197.5t-168.5 544.5zM328 712q0 -277 115 -428.5t324 -151.5q210 0 325 151.5t115 428.5q0 270 -115 418.5t-325 148.5q-209 0 -324 -148.5t-115 -418.5z" />
<glyph unicode="P" horiz-adv-x="1208" d="M174 0v1411h96h417q223 0 350 -107t127 -295q0 -192 -127 -301t-350 -109h-320v-599h-96h-97zM367 759h320q135 0 209.5 65t74.5 183q0 116 -74.5 180t-209.5 64h-320v-492z" />
<glyph unicode="Q" horiz-adv-x="1586" d="M150 714q0 339 168.5 532t463.5 193q297 0 465 -189t168 -522q0 -346 -189 -551l-15 -17h312v-160h-222l-519 -28q-314 0 -473 186t-159 556zM343 712q0 -277 115 -428.5t324 -151.5q210 0 325 151.5t115 428.5q0 270 -115 418.5t-325 148.5q-209 0 -324 -148.5 t-115 -418.5z" />
<glyph unicode="R" horiz-adv-x="1322" d="M181 0v1411h96h466q214 0 336 -96.5t122 -265.5q0 -173 -131 -271q-62 -47 -148 -72q95 -11 139 -49q65 -54 88 -217q18 -128 34 -216l11 -62q13 -65 23.5 -101t23.5 -60h-102h-103q-19 57 -35.5 138t-38.5 222l-9 59q-18 117 -77 164.5t-184 47.5h-318v-632h-96h-97z M374 792h336q142 0 220 57t78 161q0 127 -82.5 184t-266.5 57h-285v-459z" />
<glyph unicode="S" horiz-adv-x="1322" d="M136 409h194q5 -141 89 -209t254 -68q164 0 253.5 70t89.5 198q0 74 -55 124q-54 50 -167 77l-284 68q-190 45 -274 131q-84 85 -84 232q0 191 141 299t389 108q227 0 352.5 -97.5t137.5 -283.5h-196q-6 97 -87 157t-207 60q-159 0 -246.5 -60t-87.5 -169q0 -72 51 -119 q50 -47 153 -72l284 -68q198 -48 286 -135q87 -87 87 -236q0 -208 -142.5 -326t-393.5 -118q-247 0 -382 109.5t-155 327.5z" />
<glyph unicode="T" d="M72 1251v80v80h1139v-80v-80h-473v-1251h-96h-97v1251h-473z" />
<glyph unicode="U" horiz-adv-x="1473" d="M176 532v879h96h97v-837q0 -211 96.5 -326.5t271.5 -115.5t271 115.5t96 326.5v837h96h96v-879q0 -262 -148.5 -411t-411.5 -149q-262 0 -411 149t-149 411z" />
<glyph unicode="V" horiz-adv-x="1473" d="M65 1411h104h105l462 -1226l456 1226h104h105l-560 -1411h-108h-108z" />
<glyph unicode="W" horiz-adv-x="2039" d="M57 1411h101h101l326 -1204l323 1204h102h103l360 -1220l320 1220h95h96l-417 -1411h-102h-103l-360 1208l-326 -1208h-101h-102z" />
<glyph unicode="X" horiz-adv-x="1473" d="M82 0l533 739l-486 672h120h121l375 -548l373 548h115h115l-492 -676l541 -735h-123h-124l-421 601l-411 -601h-118h-118z" />
<glyph unicode="Y" horiz-adv-x="1397" d="M53 1411h118h118l415 -689l418 689h102h102l-539 -836v-575h-96h-97v574z" />
<glyph unicode="Z" horiz-adv-x="1246" d="M101 0v90v91l787 1039l24 31h-788v80v80h1003v-95v-96l-794 -1039l-16 -21h829v-80v-80h-1045z" />
<glyph unicode="[" horiz-adv-x="680" d="M196 -184v1594h359v-87h-193v-1424h193v-83h-359z" />
<glyph unicode="\" horiz-adv-x="680" d="M58 1411h114l450 -1517h-114z" />
<glyph unicode="]" horiz-adv-x="680" d="M117 -101h193v1424h-193v87h359v-1594h-359v83z" />
<glyph unicode="^" horiz-adv-x="1020" d="M99 993v94q139 102 214 196q76 95 145 253h53h53q69 -158 144 -252q76 -95 216 -197v-94q-232 105 -368 219l-46 41l-44 -40q-136 -114 -367 -220z" />
<glyph unicode="_" horiz-adv-x="1020" d="M0 -407h1020v-105h-1020v105z" />
<glyph unicode="`" d="M388 1403h248l188 -300h-171z" />
<glyph unicode="a" horiz-adv-x="1095" d="M115 279q0 156 131 244.5t361 88.5h164v83q0 94 -54 137t-174 43q-82 0 -132 -39.5t-56 -109.5h-190q11 148 106 216.5t287 68.5q177 0 285.5 -87t108.5 -229v-342q0 -140 7 -234t20 -119h-172q-11 13 -17 66q-5 35 -7 84q-18 -32 -41 -61q-97 -117 -267 -117 q-169 0 -264.5 81.5t-95.5 225.5zM298 278q0 -81 54 -125.5t153 -44.5q133 0 199 75t67 221v74h-166q-154 0 -230.5 -50t-76.5 -150z" />
<glyph unicode="b" horiz-adv-x="1171" d="M157 0v1411h90h91v-556l14 18q110 138 303 138q194 0 303.5 -136.5t109.5 -377.5q0 -246 -111.5 -385.5t-309.5 -139.5q-195 0 -307 139l-2 2v-113h-181zM338 492q0 -184 71 -285t201 -101q131 0 203 102t72 288q0 182 -71.5 281.5t-202.5 99.5q-130 0 -201.5 -100.5 t-71.5 -284.5z" />
<glyph unicode="c" horiz-adv-x="1095" d="M107 497q0 241 126.5 377.5t348.5 136.5q181 0 286.5 -91t110.5 -252h-185q-3 97 -64.5 152t-166.5 55q-136 0 -199.5 -91.5t-63.5 -287.5q0 -204 62 -296t201 -92q117 0 175.5 54.5t67.5 171.5h182q-14 -180 -116 -271t-290 -91q-241 0 -357.5 129t-117.5 396z" />
<glyph unicode="d" horiz-adv-x="1171" d="M94 497q0 241 111.5 377.5t307.5 136.5q197 0 309 -138l2 -2v540h90h91v-1411h-90h-91v130l-15 -19q-111 -139 -304 -139q-192 0 -301.5 139.5t-109.5 385.5zM286 496q0 -186 70.5 -288t198.5 -102t198.5 101t70.5 285t-70.5 284.5t-198.5 100.5t-198.5 -99.5 t-70.5 -281.5z" />
<glyph unicode="e" horiz-adv-x="1095" d="M102 476q0 250 123.5 392.5t339.5 142.5q209 0 319 -123.5t110 -359.5l-2 -66h-701q7 -168 64 -255q65 -99 205 -99q99 0 162.5 55t75.5 152h187q-21 -167 -128.5 -255t-291.5 -88q-217 0 -340 134t-123 370zM293 597h515q-9 135 -56 198q-59 80 -202 80q-124 0 -193 -93 q-52 -70 -64 -185z" />
<glyph unicode="f" horiz-adv-x="755" d="M72 852v131h192v114q0 184 68.5 256t243.5 72q49 0 97 -10v-134q-33 8 -71 8q-87 0 -122 -43t-35 -149v-114h228v-131h-228v-852h-90h-91v852h-192z" />
<glyph unicode="g" horiz-adv-x="1171" d="M101 518q0 216 121.5 354.5t311.5 138.5q180 0 282 -133l15 -19v124h181v-925q0 -236 -109.5 -344.5t-346.5 -108.5q-207 0 -303.5 77t-96.5 242h189q0 -95 52 -139t163 -44q148 0 209.5 72t61.5 245v131l-30 -42q-110 -133 -289 -133q-192 0 -301.5 134t-109.5 370z M293 516q0 -186 66.5 -277t202.5 -91q128 0 198.5 95.5t70.5 269.5t-70.5 269t-198.5 95t-198.5 -94.5t-70.5 -266.5z" />
<glyph unicode="h" horiz-adv-x="1171" d="M148 0v1411h90h91v-549l22 24q111 125 300 125q193 0 283.5 -102.5t90.5 -320.5v-588h-90h-91v583q0 151 -57 219t-182 68q-145 0 -210.5 -74.5t-65.5 -239.5v-556h-90h-91z" />
<glyph unicode="i" horiz-adv-x="491" d="M145 1226v185h198v-185h-198zM154 0v983h90h91v-983h-90h-91z" />
<glyph unicode="j" horiz-adv-x="491" d="M-21 -254h54q70 0 96 35t26 130v1072h90h91v-1072q0 -166 -57.5 -233.5t-198.5 -67.5h-13q-51 0 -88 7v129zM147 1226v185h198v-185h-198z" />
<glyph unicode="k" horiz-adv-x="1095" d="M180 0v1411h90h91v-836l386 408h114h115l-423 -415l492 -568h-122h-122l-440 541v-541h-90h-91z" />
<glyph unicode="l" horiz-adv-x="491" d="M150 0v1411h90h91v-1411h-90h-91z" />
<glyph unicode="m" horiz-adv-x="1775" d="M147 0v983h90h91v-117l17 20q104 125 280 125q152 0 251 -95q40 -38 63 -85l38 51q110 129 283 129q184 0 271 -98t87 -307v-606h-90h-91v612q0 135 -51 196.5t-164 61.5q-130 0 -189 -74.5t-59 -239.5v-556h-90h-91v611q0 136 -51.5 197.5t-164.5 61.5 q-131 0 -190 -74.5t-59 -239.5v-556h-90h-91z" />
<glyph unicode="n" horiz-adv-x="1171" d="M147 0v983h84h84v-136q14 21 31 39q112 125 302 125q194 0 285 -103t91 -322v-586h-90h-91v583q0 151 -57 219t-182 68q-145 0 -210.5 -74.5t-65.5 -239.5v-556h-90h-91z" />
<glyph unicode="o" horiz-adv-x="1171" d="M105 497q0 241 126.5 377.5t348.5 136.5q223 0 349 -136.5t126 -377.5q0 -246 -126 -385.5t-349 -139.5q-222 0 -348.5 139.5t-126.5 385.5zM298 496q0 -185 74 -286.5t208 -101.5t208 101.5t74 286.5q0 181 -74 280t-208 99t-208 -99t-74 -280z" />
<glyph unicode="p" horiz-adv-x="1171" d="M150 -367v1350h90h91v-128l14 18q110 138 303 138q194 0 303.5 -136.5t109.5 -377.5q0 -246 -111.5 -385.5t-309.5 -139.5q-195 0 -307 139l-2 2v-480h-90h-91zM331 492q0 -197 66.5 -291.5t205.5 -94.5q131 0 203 102t72 288q0 182 -71.5 281.5t-202.5 99.5 q-130 0 -201.5 -100.5t-71.5 -284.5z" />
<glyph unicode="q" horiz-adv-x="1171" d="M106 497q0 241 111.5 377.5t307.5 136.5q197 0 309 -138l2 -2v112h181v-1350h-90h-91v497l-15 -19q-111 -139 -304 -139q-192 0 -301.5 139.5t-109.5 385.5zM298 496q0 -186 70.5 -288t198.5 -102t198.5 101t70.5 285t-70.5 284.5t-198.5 100.5t-198.5 -99.5 t-70.5 -281.5z" />
<glyph unicode="r" horiz-adv-x="718" d="M148 0v983h90h91v-100q105 128 272 128h3l49 -2v-169l-37 2q-151 0 -219 -81.5t-68 -260.5v-500h-90h-91z" />
<glyph unicode="s" horiz-adv-x="1020" d="M98 295h187q0 -88 59 -137.5t163 -49.5q109 0 169 43t60 122q0 46 -37 78t-114 53l-200 54q-136 37 -196 99q-59 62 -59 168q0 134 102 210t282 76t282.5 -78t102.5 -215h-187q0 73 -52.5 115t-145.5 42q-96 0 -149 -35t-53 -98q0 -46 29 -76q28 -30 88 -46l200 -54 q153 -42 220 -107q66 -64 66 -170q0 -148 -108.5 -232.5t-299.5 -84.5q-200 0 -304.5 82.5t-104.5 240.5z" />
<glyph unicode="t" horiz-adv-x="755" d="M45 852v131h204v177l181 75v-252h241v-131h-241v-645q0 -52 26 -75.5t83 -23.5q72 1 132 13v-135q-77 -14 -178 -14q-102 0 -173 56t-71 137v687h-204z" />
<glyph unicode="u" horiz-adv-x="1171" d="M139 407v576h90h91v-589q0 -151 57 -219t182 -68q151 0 217 76q58 68 59 208q0 17 -1 35v557h90h91v-983h-84h-84v128l-20 -26q-114 -131 -302 -131q-199 0 -292.5 105.5t-93.5 330.5z" />
<glyph unicode="v" horiz-adv-x="1133" d="M63 983h100h100l306 -849l302 849h97h98l-400 -983h-102h-102z" />
<glyph unicode="w" horiz-adv-x="1775" d="M104 983h95h96l245 -819l238 819h115h115l255 -819l238 819h88h89l-321 -983h-102h-102l-264 862l-251 -862h-102h-102z" />
<glyph unicode="x" horiz-adv-x="1133" d="M67 0l396 503l-369 480h119h119l255 -363l259 363h104h104l-369 -471l385 -512h-114h-115l-282 398l-280 -398h-106h-106z" />
<glyph unicode="y" horiz-adv-x="1133" d="M66 983h97h98l317 -779l299 779h96h96l-556 -1346h-91h-91l150 359z" />
<glyph unicode="z" horiz-adv-x="982" d="M98 0v77v78l548 673l17 20h-539v67v68h742v-77v-78l-548 -673l-17 -20h579v-67v-68h-782z" />
<glyph unicode="{" horiz-adv-x="907" d="M197 458v176q87 0 136.5 77t49.5 214v266q0 219 79.5 298.5t298.5 79.5v-154q-100 0 -141 -48t-51 -176v-266q-19 -242 -97 -330q-26 -29 -65 -49q39 -20 65 -49q78 -88 97 -330v-266q10 -128 51 -176t141 -48v-154q-219 0 -298.5 79.5t-79.5 298.5v266q0 137 -49.5 214 t-136.5 77z" />
<glyph unicode="|" horiz-adv-x="1020" d="M458 -512v2048h105v-2048h-105z" />
<glyph unicode="}" horiz-adv-x="907" d="M145 -323q100 0 141 48t51 176v266q19 242 97 330q26 29 65 49q-39 20 -65 49q-78 88 -97 330v266q-10 128 -51 176t-141 48v154q219 0 298.5 -79.5t79.5 -298.5v-266q0 -137 49.5 -214t136.5 -77v-176q-87 0 -136.5 -77t-49.5 -214v-266q0 -219 -80 -299 q-79 -79 -298 -79v154z" />
<glyph unicode="~" horiz-adv-x="2039" d="M414 525q93 133 166 187t158 54q53 0 127.5 -13.5t204.5 -46.5q161 -41 235 -58t95 -17q74 0 130.5 29t119.5 101l34 -36q-63 -134 -136 -189t-188 -55q-67 0 -141.5 13.5t-190.5 47.5q-137 40 -208 56t-107 16q-76 0 -136 -27.5t-132 -94.5z" />
<glyph unicode="&#xa2;" d="M251 721q0 241 123 377.5t338 136.5q184 0 289 -89t105 -245h-193q0 93 -53.5 145.5t-147.5 52.5q-141 0 -204.5 -90t-63.5 -290q0 -204 63.5 -296t204.5 -92q99 0 155.5 60t56.5 166h182q0 -169 -105 -265.5t-289 -96.5q-215 0 -338 140t-123 386zM601 -58v389h189v-389 h-189zM601 1099v366h189v-366h-189z" />
<glyph unicode="&#xa3;" d="M230 713v131h150v172q0 198 116 310.5t320 112.5q164 0 260.5 -84t96.5 -226h-189q0 78 -51.5 126t-135.5 48q-107 0 -167.5 -76.5t-60.5 -210.5v-172h284v-131h-284v-575h604v-69v-69h-896v138h103v575h-150z" />
<glyph unicode="&#xa5;" d="M2 1411h118h118l419 -690l420 690h102h102l-542 -836v-126h319v-95h-319v-109h319v-95h-319v-150h-96h-97v150h-319v95h319v109h-319v95h319v125z" />
<glyph unicode="&#xa8;" d="M362 1167v208h192v-208h-192zM723 1167v208h192v-208h-192z" />
<glyph unicode="&#xa9;" horiz-adv-x="1020" d="M56 1051q0 201 138.5 339.5t338.5 138.5q201 0 339.5 -138.5t138.5 -339.5q0 -200 -138.5 -338.5t-339.5 -138.5q-200 0 -338.5 138.5t-138.5 338.5zM121 1051q0 -173 119.5 -292.5t292.5 -119.5t293 119.5t120 292.5t-120 293t-293 120t-292.5 -120t-119.5 -293z M304 1060q0 116 75.5 195.5t184.5 79.5q58 0 114.5 -22t79.5 -54l-58 -62q-19 26 -58.5 44.5t-77.5 18.5q-78 0 -131.5 -58t-53.5 -142t54.5 -141.5t133.5 -57.5q37 0 77 19.5t61 47.5l58 -62q-24 -34 -81 -57t-115 -23q-110 0 -186.5 79.5t-76.5 194.5z" />
<glyph unicode="&#xab;" horiz-adv-x="1133" d="M165 489l262 373h155l-224 -373l224 -373h-155zM545 489l262 373h155l-224 -373l224 -373h-155z" />
<glyph unicode="&#xad;" horiz-adv-x="680" d="M93 464v133h486v-133h-486z" />
<glyph unicode="&#xae;" horiz-adv-x="1020" d="M56 1046q0 201 138.5 339.5t338.5 138.5q201 0 339.5 -138.5t138.5 -339.5q0 -200 -138.5 -338.5t-339.5 -138.5q-200 0 -338.5 138.5t-138.5 338.5zM121 1046q0 -173 119.5 -292.5t292.5 -119.5t293 119.5t120 292.5t-120 293t-293 120t-292.5 -120t-119.5 -293z M366 807v506h187q62 0 104.5 -42.5t42.5 -104.5t-43 -105q-20 -20 -46 -31l89 -223h-91l-84 212h-84v-212h-75zM441 1094h112q30 0 51 21t21 51t-21 51t-51 21h-112v-72v-72z" />
<glyph unicode="&#xb4;" d="M534 1103l190 300h245l-263 -300h-172z" />
<glyph unicode="&#xb8;" d="M487 -391l172 263h161l-117 -263h-216z" />
<glyph unicode="&#xbb;" horiz-adv-x="1133" d="M165 116l224 373l-224 373h155l262 -373l-262 -373h-155zM545 116l224 373l-224 373h155l262 -373l-262 -373h-155z" />
<glyph unicode="&#x2c6;" d="M346 1103l213 293h95h95l213 -293h-151l-157 181l-157 -181h-151z" />
<glyph unicode="&#x2da;" d="M412 1340q0 103 68 174t167 71t167.5 -71t68.5 -174q0 -102 -68.5 -173t-167.5 -71t-167 71t-68 173zM529 1340q0 -47 34 -79t84 -32t84.5 32t34.5 79t-34.5 79.5t-84.5 32.5t-84 -32.5t-34 -79.5z" />
<glyph unicode="&#x2dc;" d="M322 1177q18 128 62 187t120 59q38 0 72 -11.5t116 -53.5q43 -22 68.5 -30.5t47.5 -8.5q31 0 46.5 21.5t26.5 77.5h117q-8 -128 -51.5 -187t-130.5 -59q-45 0 -78.5 11t-109.5 49q-49 25 -74 35t-40 10q-32 0 -48 -21.5t-27 -78.5h-117z" />
<glyph unicode="&#x401;" horiz-adv-x="1171" d="M184 0v1411h860v-80v-80h-667v-445h641v-80v-80h-641v-486h685v-80v-80h-878zM323 1558v209h192v-209h-192zM690 1558v209h192v-209h-192z" />
<glyph unicode="&#x402;" horiz-adv-x="1548" d="M48 1251v80v80h1139v-80v-80h-473v-453l56 21q153 54 285 54q220 0 323.5 -98t103.5 -306q0 -233 -102.5 -365t-282.5 -132q-106 0 -106 14v152q0 -6 106 -6q92 0 142 88q46 80 50 224q4 131 -56.5 203.5t-173.5 72.5q-108 0 -216 -29t-129 -63v-628h-96h-97v1251h-473z " />
<glyph unicode="&#x403;" horiz-adv-x="1080" d="M191 0v1411h854v-80v-80h-661v-1251h-96h-97zM492 1531l190 300h245l-263 -300h-172z" />
<glyph unicode="&#x404;" horiz-adv-x="1435" d="M141 699q0 346 168 543t463 197q247 0 393 -109t146 -293h-198q0 107 -88.5 173t-232.5 66q-216 0 -335 -145q-98 -120 -115 -325h483v-160h-483q13 -226 114 -359q116 -154 327 -154q140 0 228 64t102 177h198q-5 -180 -154 -291t-385 -111q-295 0 -463 193.5 t-168 533.5z" />
<glyph unicode="&#x405;" horiz-adv-x="1322" d="M136 409h194q5 -141 89 -209t254 -68q164 0 253.5 70t89.5 198q0 74 -55 124q-54 50 -167 77l-284 68q-190 45 -274 131q-84 85 -84 232q0 191 141 299t389 108q227 0 352.5 -97.5t137.5 -283.5h-196q-6 97 -87 157t-207 60q-159 0 -246.5 -60t-87.5 -169q0 -72 51 -119 q50 -47 153 -72l284 -68q198 -48 286 -135q87 -87 87 -236q0 -208 -142.5 -326t-393.5 -118q-247 0 -382 109.5t-155 327.5z" />
<glyph unicode="&#x406;" horiz-adv-x="566" d="M188 0v1411h96h97v-1411h-96h-97z" />
<glyph unicode="&#x407;" horiz-adv-x="566" d="M5 1558v209h192v-209h-192zM199 0v1411h96h97v-1411h-96h-97zM372 1558v209h192v-209h-192z" />
<glyph unicode="&#x408;" horiz-adv-x="1133" d="M73 367h193q15 -123 71 -178t166 -55q129 0 194.5 71t65.5 209v997h96h97v-974q0 -232 -115 -348.5t-344 -116.5q-197 0 -307.5 103t-116.5 292z" />
<glyph unicode="&#x409;" horiz-adv-x="2077" d="M66 0v163h54q109 0 147.5 78t38.5 299v871h859v-569h223q316 0 463 -100t147 -316q0 -233 -133.5 -329.5t-456.5 -96.5h-340h-96v1251h-473v-711q1 -296 -75.5 -418t-262.5 -122h-95zM1165 160h243q209 0 303 62.5t94 201.5q0 136 -98.5 197t-318.5 61h-223v-522z" />
<glyph unicode="&#x40a;" horiz-adv-x="2115" d="M179 0v1411h96h97v-605h637v605h96h97v-593h223q316 0 463 -97.5t147 -307.5q0 -226 -133.5 -319.5t-456.5 -93.5h-340h-96v646h-637v-646h-96h-97zM1202 160h243q209 0 303 59.5t94 191.5q0 130 -98.5 188.5t-318.5 58.5h-223v-498z" />
<glyph unicode="&#x40b;" horiz-adv-x="1548" d="M53 1251v80v80h1139v-80v-80h-473v-453l56 21q152 54 284 54q219 0 322.5 -93.5t103.5 -291.5v-488h-96h-97v445q0 144 -54.5 209.5t-174.5 65.5q-122 0 -221 -26.5t-123 -65.5v-628h-96h-97v1251h-473z" />
<glyph unicode="&#x40c;" horiz-adv-x="1322" d="M190 0v1411h96h97v-558h117q162 0 243.5 54t96.5 170l1 9q21 163 89.5 244t186.5 81h83v-175h-41q-58 0 -91 -37.5t-43 -112.5l-10 -83q-19 -154 -153 -226l-35 -16l31 -15q153 -79 206 -251l101 -333q20 -67 35 -103.5t31 -57.5h-102h-103q-9 23 -21 59.5t-32 101.5 l-76 250q-43 139 -146 203.5t-284 64.5h-84v-680h-96h-97zM577 1531l190 300h245l-263 -300h-172z" />
<glyph unicode="&#x40e;" horiz-adv-x="1322" d="M34 1411h115h116l402 -673l407 673h113h114l-857 -1411h-113h-114l353 577zM356 1792h136q7 -79 48.5 -114t126.5 -35q74 0 120 39t55 110h136q-10 -132 -89.5 -201t-221.5 -69q-143 0 -224 70t-87 200z" />
<glyph unicode="&#x40f;" horiz-adv-x="1473" d="M179 0v1411h96h97v-1251h727v1251h96h97v-1411h-461v-320h-193v320h-459z" />
<glyph unicode="&#x410;" horiz-adv-x="1511" d="M67 0l579 1411h106h106l579 -1411h-105h-105l-142 368h-664l-140 -368h-107h-107zM483 528h541l-271 701z" />
<glyph unicode="&#x411;" d="M179 0v1411h862v-80v-80h-669v-409h223q316 0 463 -100t147 -316q0 -233 -133.5 -329.5t-456.5 -96.5h-340h-96zM372 160h243q209 0 303 62.5t94 201.5q0 136 -98.5 197t-318.5 61h-223v-522z" />
<glyph unicode="&#x412;" d="M179 0v1411h96h361q257 0 387 -87t130 -259q0 -176 -130 -265q-50 -34 -119 -56q96 -22 164 -71q137 -97 137 -291q0 -190 -124.5 -286t-372.5 -96h-433h-96zM372 160h319q169 0 245 58.5t76 189.5q0 118 -90.5 180.5t-261.5 62.5h-288v-491zM372 815h264q164 0 244 52 t80 159q0 114 -80 169.5t-244 55.5h-264v-436z" />
<glyph unicode="&#x413;" horiz-adv-x="1080" d="M191 0v1411h854v-80v-80h-661v-1251h-96h-97z" />
<glyph unicode="&#x414;" horiz-adv-x="1365" d="M49 160h108q60 117 110 312q103 409 103 939h814v-1251h91v-480h-193v320h-840v-320h-193v480zM350 160h641v1091h-432q-11 -432 -100 -780q-48 -193 -109 -311z" />
<glyph unicode="&#x415;" horiz-adv-x="1171" d="M184 0v1411h860v-80v-80h-667v-445h641v-80v-80h-641v-486h685v-80v-80h-878z" />
<glyph unicode="&#x416;" horiz-adv-x="1851" d="M35 1q15 22 29 58t33 103l96 333q49 172 188 251l25 13l-37 19q-122 71 -139 225l-9 83q-8 75 -37.5 112.5t-80.5 37.5h-38v175h76q112 0 177.5 -81t86.5 -244l1 -9q12 -116 83.5 -170t212.5 -54h106v558h96h97v-558h105q141 0 212.5 54t83.5 170l1 9q21 163 87 244 t178 81h76v-175h-38q-52 0 -81.5 -37.5t-37.5 -112.5l-9 -83q-17 -154 -139 -226l-36 -18l25 -13q138 -79 187 -251l95 -333q19 -65 33 -101t30 -60h-102h-103q-8 21 -19.5 57.5t-30.5 103.5l-72 250q-40 139 -129 203.5t-241 64.5h-75v-680h-96h-97v680h-76 q-152 0 -241 -64.5t-129 -203.5l-72 -250q-19 -67 -30.5 -103.5t-19.5 -57.5h-102h-103z" />
<glyph unicode="&#x417;" horiz-adv-x="1171" d="M98 374h193q14 -113 91.5 -177.5t200.5 -64.5q139 0 215.5 69t76.5 194q0 123 -76.5 190.5t-215.5 67.5h-145v160h160q132 0 204.5 61.5t72.5 173.5q0 110 -72.5 170.5t-204.5 60.5q-124 0 -200.5 -67t-76.5 -175h-193q0 184 127.5 293t342.5 109q220 0 345 -99t125 -274 q0 -178 -125 -280q-42 -34 -94 -56q51 -23 90 -56q129 -106 129 -293q0 -191 -129 -300t-356 -109q-212 0 -346 111t-139 291z" />
<glyph unicode="&#x418;" horiz-adv-x="1473" d="M179 0v1411h96h97v-1200l669 1200h125h126v-1411h-96h-97v1200l-669 -1200h-125h-126z" />
<glyph unicode="&#x419;" horiz-adv-x="1473" d="M179 0v1411h96h97v-1200l669 1200h125h126v-1411h-96h-97v1200l-669 -1200h-125h-126zM424 1792h136q7 -79 48.5 -114t126.5 -35q74 0 120 39t55 110h136q-10 -132 -89.5 -201t-221.5 -69q-143 0 -224 70t-87 200z" />
<glyph unicode="&#x41a;" horiz-adv-x="1322" d="M190 0v1411h96h97v-558h117q162 0 243.5 54t96.5 170l1 9q21 163 89.5 244t186.5 81h83v-175h-41q-58 0 -91 -37.5t-43 -112.5l-10 -83q-19 -154 -153 -226l-35 -16l31 -15q153 -79 206 -251l101 -333q20 -67 35 -103.5t31 -57.5h-102h-103q-9 23 -21 59.5t-32 101.5 l-76 250q-43 139 -146 203.5t-284 64.5h-84v-680h-96h-97z" />
<glyph unicode="&#x41b;" horiz-adv-x="1435" d="M66 0v163h54q109 0 147.5 78t38.5 299v871h974v-1411h-96h-97v1251h-588v-711q1 -296 -75.5 -418t-262.5 -122h-95z" />
<glyph unicode="&#x41c;" horiz-adv-x="1851" d="M173 0v1411h156h157l443 -1181l429 1181h156h157v-1411h-96h-97v1265l-453 -1265h-97h-97l-465 1263v-1263h-96h-97z" />
<glyph unicode="&#x41d;" horiz-adv-x="1473" d="M179 0v1411h96h97v-603h727v603h96h97v-1411h-96h-97v644h-727v-644h-96h-97z" />
<glyph unicode="&#x41e;" horiz-adv-x="1548" d="M135 714q0 339 168.5 532t463.5 193q297 0 465 -193t168 -532q0 -347 -168 -544.5t-465 -197.5q-295 0 -463.5 197.5t-168.5 544.5zM328 712q0 -277 115 -428.5t324 -151.5q210 0 325 151.5t115 428.5q0 270 -115 418.5t-325 148.5q-209 0 -324 -148.5t-115 -418.5z" />
<glyph unicode="&#x41f;" horiz-adv-x="1473" d="M179 0v1411h1113v-1411h-96h-97v1251h-727v-1251h-96h-97z" />
<glyph unicode="&#x420;" horiz-adv-x="1208" d="M174 0v1411h96h417q223 0 350 -107t127 -295q0 -192 -127 -301t-350 -109h-320v-599h-96h-97zM367 759h320q135 0 209.5 65t74.5 183q0 116 -74.5 180t-209.5 64h-320v-492z" />
<glyph unicode="&#x421;" horiz-adv-x="1435" d="M141 699q0 346 168 543t463 197q247 0 393 -109t146 -293h-198q0 107 -88.5 173t-232.5 66q-216 0 -334.5 -145t-118.5 -409q0 -281 116.5 -435t327.5 -154q140 0 228 64t102 177h198q-5 -180 -154 -291t-385 -111q-295 0 -463 193.5t-168 533.5z" />
<glyph unicode="&#x422;" d="M72 1251v80v80h1139v-80v-80h-473v-1251h-96h-97v1251h-473z" />
<glyph unicode="&#x423;" horiz-adv-x="1322" d="M34 1411h115h116l402 -673l407 673h113h114l-857 -1411h-113h-114l353 577z" />
<glyph unicode="&#x424;" horiz-adv-x="1699" d="M135 711q0 235 176 369q162 123 436 135v196h96h97v-198q275 -9 436 -133q175 -134 175 -369q0 -241 -176 -378q-162 -125 -435 -136v-197h-96h-97v198q-273 10 -436 136q-176 136 -176 377zM328 709q0 -168 122 -260q110 -81 297 -92v695q-188 -8 -297 -89 q-122 -90 -122 -254zM940 359q189 8 296 90q122 92 122 260q0 164 -122 255q-107 80 -296 88v-693z" />
<glyph unicode="&#x425;" horiz-adv-x="1473" d="M82 0l533 739l-486 672h120h121l375 -548l373 548h115h115l-492 -676l541 -735h-123h-124l-421 601l-411 -601h-118h-118z" />
<glyph unicode="&#x426;" horiz-adv-x="1473" d="M179 0v1411h96h97v-1251h727v1251h96h97v-1251h91v-480h-193v320h-1011z" />
<glyph unicode="&#x427;" d="M73 1052v358h96h97v-326q0 -207 74.5 -300.5t238.5 -93.5q114 0 207.5 26.5t117.5 65.5v628h96h97v-1411h-96h-97v617q-31 -14 -67 -25q-164 -54 -308 -54q-234 0 -344.5 125t-111.5 390z" />
<glyph unicode="&#x428;" horiz-adv-x="2186" d="M179 0v1411h96h97v-1251h624v1251h96h97v-1251h623v1251h96h97v-1411h-1826z" />
<glyph unicode="&#x429;" horiz-adv-x="2186" d="M179 0v1411h96h97v-1251h624v1251h96h97v-1251h623v1251h96h97v-1251h91v-480h-193v320h-1724z" />
<glyph unicode="&#x42a;" horiz-adv-x="1472" d="M23 1251v80v80h537v-569h223q316 0 463 -100t147 -316q0 -233 -133.5 -329.5t-456.5 -96.5h-340h-96v1251h-344zM560 160h243q209 0 303 62.5t94 201.5q0 136 -98.5 197t-318.5 61h-223v-522z" />
<glyph unicode="&#x42b;" horiz-adv-x="1744" d="M179 0v1411h96h97v-569h223q316 0 463 -100t147 -316q0 -233 -133.5 -329.5t-456.5 -96.5h-340h-96zM372 160h243q209 0 303 62.5t94 201.5q0 136 -98.5 197t-318.5 61h-223v-522zM1367 0v1411h96h97v-1411h-96h-97z" />
<glyph unicode="&#x42c;" d="M179 0v1411h96h97v-569h223q316 0 463 -100t147 -316q0 -233 -133.5 -329.5t-456.5 -96.5h-340h-96zM372 160h243q209 0 303 62.5t94 201.5q0 136 -98.5 197t-318.5 61h-223v-522z" />
<glyph unicode="&#x42d;" horiz-adv-x="1435" d="M141 374h198q14 -113 102 -177t228 -64q211 0 327 154q101 133 114 359h-483v160h483q-17 205 -115 325q-119 145 -335 145q-135 0 -223.5 -66t-97.5 -173h-198q14 184 160 293t379 109q295 0 463 -197t168 -543q0 -340 -168 -533.5t-463 -193.5q-236 0 -385 111 t-154 291z" />
<glyph unicode="&#x42e;" horiz-adv-x="2030" d="M188 0v1411h96h97v-605h240q19 275 165 440q168 193 463 193q297 0 465 -193t168 -532q0 -347 -168 -544.5t-465 -197.5q-295 0 -464 198q-151 179 -167 476h-237v-646h-96h-97zM810 712q0 -277 115 -428.5t324 -151.5q210 0 325 151.5t115 428.5q0 270 -115 418.5 t-325 148.5q-209 0 -324 -148.5t-115 -418.5z" />
<glyph unicode="&#x42f;" d="M40 1h102h103q16 41 36.5 122t55.5 238l16 75q22 108 81.5 152t183.5 44h304v-632h96h97v1411h-96h-443q-207 0 -324.5 -96.5t-117.5 -265.5q0 -173 126 -271q49 -37 110 -61q-68 -12 -107 -44q-65 -54 -99 -217q-29 -139 -51 -231l-15 -63q-15 -64 -28 -100.5t-30 -60.5 zM327 1010q0 127 77.5 184t250.5 57h267v-459h-315q-134 0 -207 57t-73 161z" />
<glyph unicode="&#x430;" horiz-adv-x="1095" d="M115 279q0 156 131 244.5t361 88.5h164v83q0 94 -54 137t-174 43q-82 0 -132 -39.5t-56 -109.5h-190q11 148 106 216.5t287 68.5q177 0 285.5 -87t108.5 -229v-342q0 -140 7 -234t20 -119h-172q-11 13 -17 66q-5 35 -7 84q-18 -32 -41 -61q-97 -117 -267 -117 q-169 0 -264.5 81.5t-95.5 225.5zM298 278q0 -81 54 -125.5t153 -44.5q133 0 199 75t67 221v74h-166q-154 0 -230.5 -50t-76.5 -150z" />
<glyph unicode="&#x431;" horiz-adv-x="1133" d="M105 576q1 380 100 543t340 182q127 10 189 44t62 94h149q-10 -125 -109.5 -193t-300.5 -87q-158 -15 -222 -146q-19 -37 -31 -87q109 85 279 85q214 0 335 -136.5t121 -377.5q0 -246 -121 -386q-121 -139 -335 -139t-335 160.5t-121 443.5zM298 496q0 -185 69 -286.5 t194 -101.5t194 101.5t69 286.5q0 181 -69 280t-194 99t-194 -99t-69 -280z" />
<glyph unicode="&#x432;" horiz-adv-x="1020" d="M140 0v983h90h268q204 0 307 -61t103 -182q0 -123 -103 -185q-33 -20 -78 -34q69 -18 114 -47q108 -69 108 -205q0 -134 -100 -201.5t-298 -67.5h-321h-90zM321 136h217q115 0 166.5 36.5t51.5 117.5q0 73 -61.5 112t-178.5 39h-195v-305zM321 581h177q110 0 163.5 32 t53.5 97q0 69 -53.5 103t-163.5 34h-177v-266z" />
<glyph unicode="&#x433;" horiz-adv-x="855" d="M145 0v983h672v-67v-68h-491v-848h-90h-91z" />
<glyph unicode="&#x434;" horiz-adv-x="1061" d="M47 135h97h1q28 74 53 187q61 285 61 661h661v-848h76v-358h-181v223h-587v-223h-181v358zM325 135h414v713h-302q-8 -290 -59 -526q-23 -110 -53 -187z" />
<glyph unicode="&#x435;" horiz-adv-x="1095" d="M102 476q0 250 123.5 392.5t339.5 142.5q209 0 319 -123.5t110 -359.5l-2 -66h-701q7 -168 64 -255q65 -99 205 -99q99 0 162.5 55t75.5 152h187q-21 -167 -128.5 -255t-291.5 -88q-217 0 -340 134t-123 370zM293 597h515q-9 135 -56 198q-59 80 -202 80q-124 0 -193 -93 q-52 -70 -64 -185z" />
<glyph unicode="&#x436;" horiz-adv-x="1435" d="M23 1q15 21 30.5 57t37.5 104l53 164q37 113 144 166q36 18 82 29l-32 12q-94 40 -111 128l-18 96q-8 41 -28.5 61t-55.5 20h-29v145h58q89 0 143.5 -56.5t76.5 -169.5l7 -39q14 -70 64 -102.5t146 -32.5h29v400h90h91v-400h28q96 0 146 32.5t64 102.5l7 39 q22 113 77 169.5t144 56.5h58v-145h-29q-35 0 -56 -20t-29 -61l-18 -96q-17 -88 -111 -129l-32 -12q46 -11 82 -29q107 -52 144 -165l53 -164q22 -68 37.5 -104t30.5 -57h-98h-99l-55 161l-36 110q-29 88 -89 129t-162 41h-57v-442h-90h-91v442h-58q-102 0 -162 -41 t-89 -129l-36 -110l-55 -161h-98h-99z" />
<glyph unicode="&#x437;" horiz-adv-x="868" d="M50 260h193q9 -71 61 -111.5t134 -40.5q93 0 144 44.5t51 125.5q0 79 -51 122.5t-144 43.5h-123v134h134q88 0 136 39t48 111q0 70 -48 108.5t-136 38.5q-82 0 -132.5 -42t-50.5 -110h-193q0 132 99 210t267 78q172 0 269.5 -71.5t97.5 -196.5q0 -128 -98 -201 q-26 -19 -57 -33q31 -16 55 -34q100 -76 100 -210q0 -137 -100.5 -215t-277.5 -78q-165 0 -269.5 79.5t-108.5 208.5z" />
<glyph unicode="&#x438;" horiz-adv-x="1133" d="M144 0v983h90h91v-737l463 737h102h102v-983h-90h-91v737l-463 -737h-102h-102z" />
<glyph unicode="&#x439;" horiz-adv-x="1133" d="M144 0v983h90h91v-737l463 737h102h102v-983h-90h-91v737l-463 -737h-102h-102zM257 1391h136q7 -92 48 -132.5t127 -40.5q83 0 129 45.5t46 127.5h136q0 -144 -79.5 -219t-231.5 -75q-145 0 -226 76.5t-85 217.5z" />
<glyph unicode="&#x43a;" horiz-adv-x="1020" d="M150 0v983h90h91v-400h31q108 0 164 32.5t71 102.5l8 39q24 113 80 169.5t145 56.5h62v-145h-31q-37 0 -59.5 -20t-31.5 -61l-20 -96q-18 -88 -119 -129l-35 -12q49 -11 86 -29q114 -52 155 -165l59 -164q25 -69 41.5 -105t31.5 -56h-98h-99l-61 161l-40 110 q-32 88 -98.5 129t-179.5 41h-62v-442h-90h-91z" />
<glyph unicode="&#x43b;" horiz-adv-x="1133" d="M40 -8v163h37q78 0 105.5 44.5t27.5 171.5v612h780v-983h-90h-91v848h-418v-477q0 -208 -62 -293.5t-212 -85.5h-77z" />
<glyph unicode="&#x43c;" horiz-adv-x="1511" d="M136 0v983h147h147l331 -829l319 829h147h147v-983h-90h-91v847l-337 -847h-97h-97l-345 850v-850h-90h-91z" />
<glyph unicode="&#x43d;" horiz-adv-x="1133" d="M144 0v983h90h91v-403h486v403h90h91v-983h-90h-91v441h-486v-441h-90h-91z" />
<glyph unicode="&#x43e;" horiz-adv-x="1171" d="M105 497q0 241 126.5 377.5t348.5 136.5q223 0 349 -136.5t126 -377.5q0 -246 -126 -385.5t-349 -139.5q-222 0 -348.5 139.5t-126.5 385.5zM298 496q0 -185 74 -286.5t208 -101.5t208 101.5t74 286.5q0 181 -74 280t-208 99t-208 -99t-74 -280z" />
<glyph unicode="&#x43f;" horiz-adv-x="1133" d="M144 0v983h848v-983h-90h-91v848h-486v-848h-90h-91z" />
<glyph unicode="&#x440;" horiz-adv-x="1171" d="M150 -367v1350h90h91v-128l14 18q110 138 303 138q194 0 303.5 -136.5t109.5 -377.5q0 -246 -111.5 -385.5t-309.5 -139.5q-195 0 -307 139l-2 2v-480h-90h-91zM331 492q0 -197 66.5 -291.5t205.5 -94.5q131 0 203 102t72 288q0 182 -71.5 281.5t-202.5 99.5 q-130 0 -201.5 -100.5t-71.5 -284.5z" />
<glyph unicode="&#x441;" horiz-adv-x="1095" d="M107 497q0 241 126.5 377.5t348.5 136.5q181 0 286.5 -91t110.5 -252h-185q-3 97 -64.5 152t-166.5 55q-136 0 -199.5 -91.5t-63.5 -287.5q0 -204 62 -296t201 -92q117 0 175.5 54.5t67.5 171.5h182q-14 -180 -116 -271t-290 -91q-241 0 -357.5 129t-117.5 396z" />
<glyph unicode="&#x442;" horiz-adv-x="944" d="M48 848v67v68h844v-67v-68h-331v-848h-90h-91v848h-332z" />
<glyph unicode="&#x443;" horiz-adv-x="1133" d="M66 983h97h98l317 -779l299 779h96h96l-556 -1346h-91h-91l150 359z" />
<glyph unicode="&#x444;" horiz-adv-x="1700" d="M105 497q0 241 97.5 377.5t268.5 136.5q176 0 277 -138l6 -8v546h90h91v-545l5 7q100 138 277 138q172 0 269.5 -136.5t97.5 -377.5q0 -246 -99.5 -385.5t-275.5 -139.5q-171 0 -274 129v-468h-90h-91v469q-102 -131 -275 -130q-175 0 -274.5 139.5t-99.5 385.5zM288 496 q0 -186 59.5 -288t167.5 -102q114 0 176.5 101t62.5 285t-62.5 284.5t-176.5 100.5q-108 0 -167.5 -99.5t-59.5 -281.5zM935 492q0 -184 62 -285t175 -101q109 0 169 102t60 288q0 182 -59.5 281.5t-168.5 99.5q-113 0 -175.5 -100.5t-62.5 -284.5z" />
<glyph unicode="&#x445;" horiz-adv-x="1133" d="M67 0l396 503l-369 480h119h119l255 -363l259 363h104h104l-369 -471l385 -512h-114h-115l-282 398l-280 -398h-106h-106z" />
<glyph unicode="&#x446;" horiz-adv-x="1133" d="M144 0v983h90h91v-848h486v848h90h91v-848h76v-358h-181v223h-743z" />
<glyph unicode="&#x447;" horiz-adv-x="1020" d="M73 769v213h90h91v-216q0 -142 53.5 -206.5t172.5 -64.5q78 0 145.5 25t90.5 62v400h90h91v-983h-90h-91v433l-48 -19q-128 -49 -237 -49q-184 0 -271 98t-87 307z" />
<glyph unicode="&#x448;" horiz-adv-x="1662" d="M144 0v983h90h91v-848h417v848h90h91v-848h417v848h90h91v-983h-1377z" />
<glyph unicode="&#x449;" horiz-adv-x="1662" d="M144 0v983h90h91v-848h417v848h90h91v-848h417v848h90h91v-848h76v-358h-181v223h-1272z" />
<glyph unicode="&#x44a;" horiz-adv-x="1231" d="M46 848v67v68h496v-351l152 -3q247 0 361.5 -75t114.5 -236q0 -174 -104.5 -246t-358.5 -72h-256h-90v848h-315zM542 136h165q142 0 206 42.5t64 137.5q0 93 -67 135t-216 42h-152v-357z" />
<glyph unicode="&#x44b;" horiz-adv-x="1432" d="M151 0v983h90h91v-351l152 -3q247 0 361.5 -75t114.5 -236q0 -174 -104.5 -246t-358.5 -72h-256h-90zM332 136h165q142 0 206 42.5t64 137.5q0 93 -67 135t-216 42h-152v-357zM1104 0v983h90h91v-983h-90h-91z" />
<glyph unicode="&#x44c;" horiz-adv-x="1020" d="M151 0v983h90h91v-351l152 -3q247 0 361.5 -75t114.5 -236q0 -174 -104.5 -246t-358.5 -72h-256h-90zM332 136h165q142 0 206 42.5t64 137.5q0 93 -67 135t-216 42h-152v-357z" />
<glyph unicode="&#x44d;" horiz-adv-x="1095" d="M107 334h186q0 -105 57.5 -165t159.5 -60q133 0 206 103q58 81 70 211h-338v135h341q-11 138 -72 218q-74 97 -207 97q-105 0 -165 -54.5t-60 -150.5h-178q0 161 108 252t298 91q236 0 355.5 -131.5t119.5 -392.5q0 -257 -119.5 -386t-355.5 -129q-206 0 -306 89 t-100 273z" />
<glyph unicode="&#x44e;" horiz-adv-x="1613" d="M145 0v983h90h91v-405h225q18 185 123 297q126 136 348 136q223 0 349 -136.5t126 -377.5q0 -246 -126 -385.5t-349 -139.5q-222 0 -349 140q-112 125 -125 331h-222v-443h-90h-91zM740 496q0 -185 74 -286.5t208 -101.5t208 101.5t74 286.5q0 181 -74 280t-208 99 t-208 -99t-74 -280z" />
<glyph unicode="&#x44f;" horiz-adv-x="1020" d="M22 1h98h99q13 35 23.5 71t23.5 89l35 146q15 67 56.5 94t127.5 27h241v-428h90h91v983h-90h-345q-174 0 -273 -67.5t-99 -186.5q0 -122 106 -191q34 -22 76 -37q-50 -10 -78 -30q-52 -37 -79 -150q-22 -92 -40 -157q-20 -70 -34.5 -106.5t-28.5 -56.5zM293 698 q0 78 56.5 113.5t182.5 35.5h194v-283h-229q-97 0 -150.5 35t-53.5 99z" />
<glyph unicode="&#x451;" horiz-adv-x="1095" d="M102 476q0 250 123.5 392.5t339.5 142.5q209 0 319 -123.5t110 -359.5l-2 -66h-701q7 -168 64 -255q65 -99 205 -99q99 0 162.5 55t75.5 152h187q-21 -167 -128.5 -255t-291.5 -88q-217 0 -340 134t-123 370zM290 1167v208h192v-208h-192zM293 597h515q-9 135 -56 198 q-59 80 -202 80q-124 0 -193 -93q-52 -70 -64 -185zM651 1167v208h192v-208h-192z" />
<glyph unicode="&#x452;" horiz-adv-x="1171" d="M13 1148v135h702v-135h-702zM148 0v1411h84h84v-564q14 21 31 39q112 125 302 125q194 0 285 -103t91 -322v-666q0 -168 -54 -236.5t-185 -68.5q-64 0 -113 5v129h10q104 0 132.5 30.5t28.5 140.5v663q0 151 -57 219t-182 68q-145 0 -210.5 -74.5t-65.5 -239.5v-556h-90 h-91z" />
<glyph unicode="&#x453;" horiz-adv-x="855" d="M145 0v983h672v-67v-68h-491v-848h-90h-91zM355 1103l190 300h245l-263 -300h-172z" />
<glyph unicode="&#x454;" horiz-adv-x="1095" d="M107 487q0 261 119.5 392.5t355.5 131.5q190 0 298 -91t108 -252h-198q0 96 -54.5 150.5t-150.5 54.5q-133 0 -207 -97q-61 -80 -72 -218h341v-135h-338q12 -130 70 -211q73 -103 206 -103q102 0 159.5 60t57.5 165h186q0 -169 -108 -265.5t-298 -96.5q-236 0 -355.5 129 t-119.5 386z" />
<glyph unicode="&#x455;" horiz-adv-x="1020" d="M98 295h187q0 -88 59 -137.5t163 -49.5q109 0 169 43t60 122q0 46 -37 78t-114 53l-200 54q-136 37 -196 99q-59 62 -59 168q0 134 102 210t282 76t282.5 -78t102.5 -215h-187q0 73 -52.5 115t-145.5 42q-96 0 -149 -35t-53 -98q0 -46 29 -76q28 -30 88 -46l200 -54 q153 -42 220 -107q66 -64 66 -170q0 -148 -108.5 -232.5t-299.5 -84.5q-200 0 -304.5 82.5t-104.5 240.5z" />
<glyph unicode="&#x456;" horiz-adv-x="491" d="M145 1226v185h198v-185h-198zM154 0v983h90h91v-983h-90h-91z" />
<glyph unicode="&#x457;" horiz-adv-x="491" d="M-35 1167v208h192v-208h-192zM151 0v983h90h91v-983h-90h-91zM326 1167v208h192v-208h-192z" />
<glyph unicode="&#x458;" horiz-adv-x="491" d="M-21 -254h54q70 0 96 35t26 130v1072h90h91v-1072q0 -166 -57.5 -233.5t-198.5 -67.5q-59 -1 -101 7v129zM147 1226v185h198v-185h-198z" />
<glyph unicode="&#x459;" horiz-adv-x="1699" d="M40 -8v163h37q78 0 105.5 44.5t27.5 171.5v612h800v-351l152 -3q247 0 361.5 -75t114.5 -236q0 -174 -104.5 -246t-358.5 -72h-256h-90v848h-438v-477q0 -208 -62 -293.5t-212 -85.5h-77zM1010 136h165q142 0 206 42.5t64 137.5q0 93 -67 135t-216 42h-152v-357z" />
<glyph unicode="&#x45a;" horiz-adv-x="1737" d="M144 0v983h90h91v-356h542v356h90h91v-351l152 -3q247 0 361.5 -75t114.5 -236q0 -174 -104.5 -246t-358.5 -72h-256h-90v492h-542v-492h-90h-91zM1048 136h165q142 0 206 42.5t64 137.5q0 93 -67 135t-216 42h-152v-357z" />
<glyph unicode="&#x45b;" horiz-adv-x="1171" d="M13 1148v135h702v-135h-702zM148 0v1411h84h84v-564q14 21 31 39q112 125 302 125q194 0 285 -103t91 -322v-586h-90h-91v583q0 151 -57 219t-182 68q-145 0 -210.5 -74.5t-65.5 -239.5v-556h-90h-91z" />
<glyph unicode="&#x45c;" horiz-adv-x="1020" d="M150 0v983h90h91v-400h31q108 0 164 32.5t71 102.5l8 39q24 113 80 169.5t145 56.5h62v-145h-31q-37 0 -59.5 -20t-31.5 -61l-20 -96q-18 -88 -119 -129l-35 -12q49 -11 86 -29q114 -52 155 -165l59 -164q25 -69 41.5 -105t31.5 -56h-98h-99l-61 161l-40 110 q-32 88 -98.5 129t-179.5 41h-62v-442h-90h-91zM424 1103l190 300h245l-263 -300h-172z" />
<glyph unicode="&#x45e;" horiz-adv-x="1133" d="M66 983h97h98l317 -779l299 779h96h96l-556 -1346h-91h-91l150 359zM256 1391h136q7 -92 48 -132.5t127 -40.5q83 0 129 45.5t46 127.5h136q0 -144 -79.5 -219t-231.5 -75q-145 0 -226 76.5t-85 217.5z" />
<glyph unicode="&#x45f;" horiz-adv-x="1133" d="M144 0v983h90h91v-848h486v848h90h91v-983h-334v-223h-181v223h-333z" />
<glyph unicode="&#x490;" horiz-adv-x="1080" d="M191 0v1411h694v282h160v-442h-661v-1251h-96h-97z" />
<glyph unicode="&#x491;" horiz-adv-x="812" d="M145 0v983h497v196h135v-331h-451v-848h-90h-91z" />
<glyph unicode="&#x2000;" horiz-adv-x="915" />
<glyph unicode="&#x2001;" horiz-adv-x="1831" />
<glyph unicode="&#x2002;" horiz-adv-x="915" />
<glyph unicode="&#x2003;" horiz-adv-x="1831" />
<glyph unicode="&#x2004;" horiz-adv-x="610" />
<glyph unicode="&#x2005;" horiz-adv-x="457" />
<glyph unicode="&#x2006;" horiz-adv-x="305" />
<glyph unicode="&#x2007;" horiz-adv-x="305" />
<glyph unicode="&#x2008;" horiz-adv-x="228" />
<glyph unicode="&#x2009;" horiz-adv-x="366" />
<glyph unicode="&#x200a;" horiz-adv-x="101" />
<glyph unicode="&#x2010;" horiz-adv-x="680" d="M93 464v133h486v-133h-486z" />
<glyph unicode="&#x2011;" horiz-adv-x="680" d="M93 464v133h486v-133h-486z" />
<glyph unicode="&#x2012;" horiz-adv-x="680" d="M93 464v133h486v-133h-486z" />
<glyph unicode="&#x2013;" d="M154 466v109h974v-109h-974z" />
<glyph unicode="&#x2014;" horiz-adv-x="2039" d="M287 476v109h1464v-109h-1464z" />
<glyph unicode="&#x2018;" horiz-adv-x="680" d="M147 935l223 476h132l-135 -476h-220z" />
<glyph unicode="&#x2019;" horiz-adv-x="680" d="M161 935l135 476h220l-223 -476h-132z" />
<glyph unicode="&#x201a;" horiz-adv-x="680" d="M161 -238l135 476h220l-223 -476h-132z" />
<glyph unicode="&#x201c;" horiz-adv-x="1020" d="M203 935l223 476h132l-135 -476h-220zM553 935l223 476h132l-135 -476h-220z" />
<glyph unicode="&#x201d;" horiz-adv-x="1020" d="M209 935l135 476h220l-223 -476h-132zM559 935l135 476h220l-223 -476h-132z" />
<glyph unicode="&#x201e;" horiz-adv-x="1020" d="M209 -238l135 476h220l-223 -476h-132zM559 -238l135 476h220l-223 -476h-132z" />
<glyph unicode="&#x2022;" horiz-adv-x="1020" d="M140 733q0 155 107.5 262.5t262.5 107.5t262.5 -107.5t107.5 -262.5t-107.5 -262.5t-262.5 -107.5t-262.5 107.5t-107.5 262.5z" />
<glyph unicode="&#x2026;" horiz-adv-x="2039" d="M233 0v214h218v-214h-218zM904 0v214h218v-214h-218zM1576 0v214h218v-214h-218z" />
<glyph unicode="&#x202f;" horiz-adv-x="366" />
<glyph unicode="&#x2039;" horiz-adv-x="755" d="M165 489l262 373h155l-224 -373l224 -373h-155z" />
<glyph unicode="&#x203a;" horiz-adv-x="755" d="M167 116l224 373l-224 373h155l262 -373l-262 -373h-155z" />
<glyph unicode="&#x205f;" horiz-adv-x="457" />
<glyph unicode="&#x2122;" horiz-adv-x="1248" d="M51 1299v89h393v-89h-152v-518h-89v518h-152zM507 781v607h160l112 -486l112 486h160v-607h-89v559l-129 -559h-108l-129 559v-559h-89z" />
<glyph unicode="&#x25fc;" horiz-adv-x="985" d="M0 0v985h985v-985h-985z" />
</font>
</defs>
</svg>
